<svg width="27" height="27" viewBox="0 0 27 27" fill="none" xmlns="http://www.w3.org/2000/svg">
<path fill-rule="evenodd" clip-rule="evenodd" d="M5.74979 0C4.22523 -1.12417e-07 2.76308 0.605476 1.68485 1.68329C0.606623 2.76111 0.000585467 4.22302 0 5.74758V21.0803C0 22.6053 0.605779 24.0678 1.68407 25.1461C2.76237 26.2243 4.22485 26.8301 5.74979 26.8301H21.0825C22.6071 26.8295 24.069 26.2235 25.1468 25.1453C26.2246 24.067 26.8301 22.6049 26.8301 21.0803V5.74758C26.8295 4.22341 26.2238 2.76183 25.1461 1.68407C24.0683 0.60632 22.6067 0.000585208 21.0825 0H5.74979ZM22.7364 5.75641C22.7364 6.19562 22.5619 6.61684 22.2513 6.92741C21.9408 7.23798 21.5196 7.41245 21.0803 7.41245C20.6411 7.41245 20.2199 7.23798 19.9093 6.92741C19.5988 6.61684 19.4243 6.19562 19.4243 5.75641C19.4243 5.3172 19.5988 4.89598 19.9093 4.58541C20.2199 4.27484 20.6411 4.10037 21.0803 4.10037C21.5196 4.10037 21.9408 4.27484 22.2513 4.58541C22.5619 4.89598 22.7364 5.3172 22.7364 5.75641ZM13.4184 8.8212C12.2003 8.8212 11.0321 9.30507 10.1708 10.1664C9.30949 11.0277 8.82561 12.1959 8.82561 13.414C8.82561 14.632 9.30949 15.8002 10.1708 16.6615C11.0321 17.5228 12.2003 18.0067 13.4184 18.0067C14.6365 18.0067 15.8046 17.5228 16.6659 16.6615C17.5273 15.8002 18.0111 14.632 18.0111 13.414C18.0111 12.1959 17.5273 11.0277 16.6659 10.1664C15.8046 9.30507 14.6365 8.8212 13.4184 8.8212ZM6.61535 13.414C6.61535 11.6103 7.33186 9.88045 8.60726 8.60505C9.88266 7.32965 11.6125 6.61314 13.4162 6.61314C15.2199 6.61314 16.9497 7.32965 18.2251 8.60505C19.5005 9.88045 20.217 11.6103 20.217 13.414C20.217 15.2176 19.5005 16.9475 18.2251 18.2229C16.9497 19.4983 15.2199 20.2148 13.4162 20.2148C11.6125 20.2148 9.88266 19.4983 8.60726 18.2229C7.33186 16.9475 6.61535 15.2176 6.61535 13.414Z" fill="#0D0D0D"/>
</svg>
