<svg width="30" height="25" viewBox="0 0 30 25" fill="none" xmlns="http://www.w3.org/2000/svg">
<path d="M12.5858 14.9997C12.6017 15.0082 12.6181 15.0168 12.6343 15.0246C13.3333 15.3631 14.1123 15.5343 14.8928 15.5343C15.6732 15.5342 16.4512 15.3631 17.1501 15.0246C17.1664 15.0167 17.1825 15.0083 17.1985 14.9997L29.7699 7.80275V20.251C29.7699 22.5445 27.9105 24.4039 25.617 24.4039H4.15291C1.85944 24.4038 0 22.5445 0 20.251V7.80144L12.5858 14.9997Z" fill="#0D0D0D"/>
<path d="M25.617 0C27.9105 0 29.7699 1.85937 29.7699 4.15291L15.861 11.86C15.5794 11.9949 15.245 12.0735 14.8928 12.0736C14.5399 12.0736 14.204 11.9953 13.9221 11.86L0 4.02452C1.7285e-07 1.73103 1.85944 7.7009e-05 4.15291 0H25.617Z" fill="#0D0D0D"/>
</svg>
