<svg width="1920" height="1497" viewBox="0 0 1920 1497" fill="none" xmlns="http://www.w3.org/2000/svg">
<path d="M0 147.894V34.5583L62.4278 0L112.965 0.371594V0.743188V33.8151H31.2139V131.544H96.2429V98.844H62.4278V66.1438H128.943V131.544L109.383 164.616H30.4707V147.894H0Z" fill="#101010"/>
<path d="M153.56 43.2034L128.686 0.134766H210.362L255.656 84.383L210.362 164.853H128.686L153.56 122.162H189.201L206.65 84.383L189.201 43.2034H153.56Z" fill="#101010"/>
<path d="M474.424 106.046V219.383L411.996 253.941L361.459 253.569V253.198V220.126H443.21V122.397H378.181V155.097H411.996V187.797H345.481V122.397L365.04 89.3247H443.953V106.046H474.424Z" fill="#101010"/>
<path d="M320.864 210.738L345.738 253.806H264.061L218.768 169.558L264.061 89.0877H345.738L320.864 131.778H285.223L267.774 169.558L285.223 210.738H320.864Z" fill="#101010"/>
<path d="M0 326.339V213.003L62.4278 178.445L112.965 178.816V179.188V212.26H31.2139V309.989H96.2429V277.289H62.4278V244.589H128.943V309.989L109.383 343.061H30.4707V326.339H0Z" fill="#101010"/>
<path d="M153.56 221.648L128.686 178.58H210.362L255.656 262.828L210.362 343.298H128.686L153.56 300.607H189.201L206.65 262.828L189.201 221.648H153.56Z" fill="#101010"/>
<path d="M474.424 284.491V397.827L411.996 432.386L361.459 432.014V431.643V398.571H443.21V300.841H378.181V333.542H411.996V366.242H345.481V300.841L365.04 267.77H443.953V284.491H474.424Z" fill="#101010"/>
<path d="M320.864 389.182L345.738 432.251H264.061L218.768 348.003L264.061 267.533H345.738L320.864 310.223H285.223L267.774 348.003L285.223 389.182H320.864Z" fill="#101010"/>
<path d="M0 504.785V391.448L62.4278 356.89L112.965 357.262V357.633V390.705H31.2139V488.434H96.2429V455.734H62.4278V423.034H128.943V488.434L109.383 521.506H30.4707V504.785H0Z" fill="#0D0D0D"/>
<path d="M153.56 400.093L128.686 357.024H210.362L255.656 441.273L210.362 521.743H128.686L153.56 479.052H189.201L206.65 441.273L189.201 400.093H153.56Z" fill="#101010"/>
<path d="M474.424 462.937V576.273L411.996 610.831L361.459 610.459V610.088V577.016H443.21V479.287H378.181V511.987H411.996V544.687H345.481V479.287L365.04 446.215H443.953V462.937H474.424Z" fill="#101010"/>
<path d="M320.864 567.628L345.738 610.696H264.061L218.768 526.448L264.061 445.978H345.738L320.864 488.669H285.223L267.774 526.448L285.223 567.628H320.864Z" fill="#101010"/>
<path d="M0 683.229V569.893L62.4278 535.335L112.965 535.707V536.078V569.15H31.2139V666.879H96.2429V634.179H62.4278V601.479H128.943V666.879L109.383 699.951H30.4707V683.229H0Z" fill="#101010"/>
<path d="M153.56 578.538L128.686 535.47H210.362L255.656 619.718L210.362 700.188H128.686L153.56 657.497H189.201L206.65 619.718L189.201 578.538H153.56Z" fill="#101010"/>
<path d="M474.424 641.516V754.852L411.996 789.411L361.459 789.039V788.667V755.596H443.21V657.866H378.181V690.567H411.996V723.267H345.481V657.866L365.04 624.794H443.953V641.516H474.424Z" fill="#101010"/>
<path d="M320.864 746.208L345.738 789.276H264.061L218.768 705.028L264.061 624.558H345.738L320.864 667.249H285.223L267.774 705.028L285.223 746.208H320.864Z" fill="#101010"/>
<path d="M0 854.811V741.475L62.4278 706.917L112.965 707.288V707.66V740.732H31.2139V838.461H96.2429V805.761H62.4278V773.06H128.943V838.461L109.383 871.533H30.4707V854.811H0Z" fill="#101010"/>
<path d="M153.56 750.119L128.686 707.051H210.362L255.656 791.299L210.362 871.769H128.686L153.56 829.078H189.201L206.65 791.299L189.201 750.119H153.56Z" fill="#101010"/>
<path d="M474.424 812.963V926.299L411.996 960.857L361.459 960.486V960.114V927.042H443.21V829.313H378.181V862.013H411.996V894.714H345.481V829.313L365.04 796.241H443.953V812.963H474.424Z" fill="#0D0D0D"/>
<path d="M320.864 917.654L345.738 960.723H264.061L218.768 876.474L264.061 796.004H345.738L320.864 838.695H285.223L267.774 876.474L285.223 917.654H320.864Z" fill="#101010"/>
<path d="M0 1033.26V919.92L62.4278 885.361L112.965 885.733V886.105V919.176H31.2139V1016.91H96.2429V984.205H62.4278V951.505H128.943V1016.91L109.383 1049.98H30.4707V1033.26H0Z" fill="#101010"/>
<path d="M153.56 928.564L128.686 885.496H210.362L255.656 969.744L210.362 1050.21H128.686L153.56 1007.52H189.201L206.65 969.744L189.201 928.564H153.56Z" fill="#101010"/>
<path d="M474.424 991.408V1104.74L411.996 1139.3L361.459 1138.93V1138.56V1105.49H443.21V1007.76H378.181V1040.46H411.996V1073.16H345.481V1007.76L365.04 974.686H443.953V991.408H474.424Z" fill="#101010"/>
<path d="M320.864 1096.1L345.738 1139.17H264.061L218.768 1054.92L264.061 974.449H345.738L320.864 1017.14H285.223L267.774 1054.92L285.223 1096.1H320.864Z" fill="#101010"/>
<path d="M0 1211.7V1098.36L62.4278 1063.81L112.965 1064.18V1064.55V1097.62H31.2139V1195.35H96.2429V1162.65H62.4278V1129.95H128.943V1195.35L109.383 1228.42H30.4707V1211.7H0Z" fill="#101010"/>
<path d="M153.56 1107.01L128.686 1063.94H210.362L255.656 1148.19L210.362 1228.66H128.686L153.56 1185.97H189.201L206.65 1148.19L189.201 1107.01H153.56Z" fill="#101010"/>
<path d="M474.424 1169.85V1283.19L411.996 1317.75L361.459 1317.38V1317V1283.93H443.21V1186.2H378.181V1218.9H411.996V1251.6H345.481V1186.2L365.04 1153.13H443.953V1169.85H474.424Z" fill="#101010"/>
<path d="M320.864 1274.54L345.738 1317.61H264.061L218.768 1233.36L264.061 1152.89H345.738L320.864 1195.59H285.223L267.774 1233.36L285.223 1274.54H320.864Z" fill="#101010"/>
<path d="M0 1390.15V1276.81L62.4278 1242.25L112.965 1242.62V1242.99V1276.07H31.2139V1373.8H96.2429V1341.1H62.4278V1308.39H128.943V1373.8L109.383 1406.87H30.4707V1390.15H0Z" fill="#101010"/>
<path d="M153.56 1285.45L128.686 1242.39H210.362L255.656 1326.63L210.362 1407.1H128.686L153.56 1364.41H189.201L206.65 1326.63L189.201 1285.45H153.56Z" fill="#101010"/>
<path d="M474.424 1348.43V1461.77L411.996 1496.33L361.459 1495.96V1495.58V1462.51H443.21V1364.78H378.181V1397.48H411.996V1430.18H345.481V1364.78L365.04 1331.71H443.953V1348.43H474.424Z" fill="#101010"/>
<path d="M320.864 1453.12L345.738 1496.19H264.061L218.768 1411.94L264.061 1331.47H345.738L320.864 1374.16H285.223L267.774 1411.94L285.223 1453.12H320.864Z" fill="#101010"/>
<path d="M485.576 147.894V34.5583L548.004 0L598.541 0.371594V0.743188V33.8151H516.79V131.544H581.819V98.844H548.004V66.1438H614.519V131.544L594.96 164.616H516.047V147.894H485.576Z" fill="#101010"/>
<path d="M639.136 43.2034L614.262 0.134766H695.939L741.232 84.383L695.939 164.853H614.262L639.136 122.162H674.777L692.226 84.383L674.777 43.2034H639.136Z" fill="#101010"/>
<path d="M959.998 106.046V219.383L897.57 253.941L847.033 253.569V253.198V220.126H928.784V122.397H863.755V155.097H897.57V187.797H831.055V122.397L850.615 89.3247H929.527V106.046H959.998Z" fill="#101010"/>
<path d="M806.438 210.738L831.312 253.806H749.636L704.342 169.558L749.636 89.0877H831.312L806.438 131.778H770.797L753.348 169.558L770.797 210.738H806.438Z" fill="#101010"/>
<path d="M485.576 326.339V213.003L548.004 178.445L598.541 178.816V179.188V212.26H516.79V309.989H581.819V277.289H548.004V244.589H614.519V309.989L594.96 343.061H516.047V326.339H485.576Z" fill="#101010"/>
<path d="M639.136 221.648L614.262 178.58H695.939L741.232 262.828L695.939 343.298H614.262L639.136 300.607H674.777L692.226 262.828L674.777 221.648H639.136Z" fill="#101010"/>
<path d="M959.998 284.491V397.827L897.57 432.386L847.033 432.014V431.643V398.571H928.784V300.841H863.755V333.542H897.57V366.242H831.055V300.841L850.615 267.77H929.527V284.491H959.998Z" fill="#101010"/>
<path d="M806.438 389.183L831.312 432.251H749.636L704.342 348.003L749.636 267.533H831.312L806.438 310.224H770.797L753.348 348.003L770.797 389.183H806.438Z" fill="#101010"/>
<path d="M485.576 504.785V391.448L548.004 356.89L598.541 357.262V357.633V390.705H516.79V488.434H581.819V455.734H548.004V423.034H614.519V488.434L594.96 521.506H516.047V504.785H485.576Z" fill="#101010"/>
<path d="M639.136 400.093L614.262 357.025H695.939L741.232 441.273L695.939 521.743H614.262L639.136 479.053H674.777L692.226 441.273L674.777 400.093H639.136Z" fill="#101010"/>
<path d="M959.998 462.937V576.273L897.57 610.831L847.033 610.459V610.088V577.016H928.784V479.287H863.755V511.987H897.57V544.687H831.055V479.287L850.615 446.215H929.527V462.937H959.998Z" fill="#101010"/>
<path d="M806.438 567.628L831.312 610.696H749.636L704.342 526.448L749.636 445.978H831.312L806.438 488.669H770.797L753.348 526.448L770.797 567.628H806.438Z" fill="#101010"/>
<path d="M485.576 683.23V569.894L548.004 535.335L598.541 535.707V536.079V569.151H516.79V666.88H581.819V634.179H548.004V601.479H614.519V666.88L594.96 699.952H516.047V683.23H485.576Z" fill="#101010"/>
<path d="M639.136 578.538L614.262 535.47H695.939L741.232 619.718L695.939 700.188H614.262L639.136 657.497H674.777L692.226 619.718L674.777 578.538H639.136Z" fill="#101010"/>
<path d="M959.998 641.516V754.852L897.57 789.411L847.033 789.039V788.667V755.596H928.784V657.866H863.755V690.567H897.57V723.267H831.055V657.866L850.615 624.794H929.527V641.516H959.998Z" fill="#101010"/>
<path d="M806.438 746.208L831.312 789.276H749.636L704.342 705.028L749.636 624.558H831.312L806.438 667.249H770.797L753.348 705.028L770.797 746.208H806.438Z" fill="#101010"/>
<path d="M485.576 854.811V741.475L548.004 706.917L598.541 707.288V707.66V740.732H516.79V838.461H581.819V805.761H548.004V773.06H614.519V838.461L594.96 871.533H516.047V854.811H485.576Z" fill="#101010"/>
<path d="M639.136 750.119L614.262 707.051H695.939L741.232 791.299L695.939 871.769H614.262L639.136 829.078H674.777L692.226 791.299L674.777 750.119H639.136Z" fill="#101010"/>
<path d="M959.998 812.963V926.299L897.57 960.857L847.033 960.486V960.114V927.042H928.784V829.313H863.755V862.013H897.57V894.714H831.055V829.313L850.615 796.241H929.527V812.963H959.998Z" fill="#101010"/>
<path d="M806.438 917.654L831.312 960.723H749.636L704.342 876.474L749.636 796.004H831.312L806.438 838.695H770.797L753.348 876.474L770.797 917.654H806.438Z" fill="#101010"/>
<path d="M485.576 1033.26V919.92L548.004 885.361L598.541 885.733V886.105V919.176H516.79V1016.91H581.819V984.205H548.004V951.505H614.519V1016.91L594.96 1049.98H516.047V1033.26H485.576Z" fill="#101010"/>
<path d="M639.136 928.564L614.262 885.496H695.939L741.232 969.744L695.939 1050.21H614.262L639.136 1007.52H674.777L692.226 969.744L674.777 928.564H639.136Z" fill="#101010"/>
<path d="M959.998 991.408V1104.74L897.57 1139.3L847.033 1138.93V1138.56V1105.49H928.784V1007.76H863.755V1040.46H897.57V1073.16H831.055V1007.76L850.615 974.686H929.527V991.408H959.998Z" fill="#101010"/>
<path d="M806.438 1096.1L831.312 1139.17H749.636L704.342 1054.92L749.636 974.449H831.312L806.438 1017.14H770.797L753.348 1054.92L770.797 1096.1H806.438Z" fill="#101010"/>
<path d="M485.576 1211.7V1098.36L548.004 1063.81L598.541 1064.18V1064.55V1097.62H516.79V1195.35H581.819V1162.65H548.004V1129.95H614.519V1195.35L594.96 1228.42H516.047V1211.7H485.576Z" fill="#101010"/>
<path d="M639.136 1107.01L614.262 1063.94H695.939L741.232 1148.19L695.939 1228.66H614.262L639.136 1185.97H674.777L692.226 1148.19L674.777 1107.01H639.136Z" fill="#101010"/>
<path d="M959.998 1169.85V1283.19L897.57 1317.75L847.033 1317.38V1317V1283.93H928.784V1186.2H863.755V1218.9H897.57V1251.6H831.055V1186.2L850.615 1153.13H929.527V1169.85H959.998Z" fill="#101010"/>
<path d="M806.438 1274.54L831.312 1317.61H749.636L704.342 1233.36L749.636 1152.89H831.312L806.438 1195.59H770.797L753.348 1233.36L770.797 1274.54H806.438Z" fill="#101010"/>
<path d="M485.576 1390.15V1276.81L548.004 1242.25L598.541 1242.62V1243V1276.07H516.79V1373.8H581.819V1341.1H548.004V1308.4H614.519V1373.8L594.96 1406.87H516.047V1390.15H485.576Z" fill="#101010"/>
<path d="M639.136 1285.45L614.262 1242.39H695.939L741.232 1326.63L695.939 1407.1H614.262L639.136 1364.41H674.777L692.226 1326.63L674.777 1285.45H639.136Z" fill="#101010"/>
<path d="M959.998 1348.43V1461.77L897.57 1496.33L847.033 1495.96V1495.58V1462.51H928.784V1364.78H863.755V1397.48H897.57V1430.18H831.055V1364.78L850.615 1331.71H929.527V1348.43H959.998Z" fill="#101010"/>
<path d="M806.438 1453.12L831.312 1496.19H749.636L704.342 1411.94L749.636 1331.47H831.312L806.438 1374.16H770.797L753.348 1411.94L770.797 1453.12H806.438Z" fill="#101010"/>
<path d="M960 147.894V34.5583L1022.43 0L1072.96 0.371594V0.743188V33.8151H991.214V131.544H1056.24V98.844H1022.43V66.1438H1088.94V131.544L1069.38 164.616H990.471V147.894H960Z" fill="#101010"/>
<path d="M1113.56 43.2034L1088.69 0.134766H1170.36L1215.66 84.383L1170.36 164.853H1088.69L1113.56 122.162H1149.2L1166.65 84.383L1149.2 43.2034H1113.56Z" fill="#101010"/>
<path d="M1434.42 106.046V219.383L1372 253.941L1321.46 253.569V253.198V220.126H1403.21V122.397H1338.18V155.097H1372V187.797H1305.48V122.397L1325.04 89.3247H1403.95V106.046H1434.42Z" fill="#101010"/>
<path d="M1280.86 210.738L1305.74 253.806H1224.06L1178.77 169.558L1224.06 89.0877H1305.74L1280.86 131.778H1245.22L1227.77 169.558L1245.22 210.738H1280.86Z" fill="#101010"/>
<path d="M960 326.339V213.003L1022.43 178.445L1072.96 178.816V179.188V212.26H991.214V309.989H1056.24V277.289H1022.43V244.589H1088.94V309.989L1069.38 343.061H990.471V326.339H960Z" fill="#101010"/>
<path d="M1113.56 221.648L1088.69 178.58H1170.36L1215.66 262.828L1170.36 343.298H1088.69L1113.56 300.607H1149.2L1166.65 262.828L1149.2 221.648H1113.56Z" fill="#101010"/>
<path d="M1434.42 284.491V397.827L1372 432.386L1321.46 432.014V431.643V398.571H1403.21V300.841H1338.18V333.542H1372V366.242H1305.48V300.841L1325.04 267.77H1403.95V284.491H1434.42Z" fill="#101010"/>
<path d="M1280.86 389.182L1305.74 432.251H1224.06L1178.77 348.003L1224.06 267.533H1305.74L1280.86 310.223H1245.22L1227.77 348.003L1245.22 389.182H1280.86Z" fill="#0D0D0D"/>
<path d="M960 504.785V391.448L1022.43 356.89L1072.96 357.262V357.633V390.705H991.214V488.434H1056.24V455.734H1022.43V423.034H1088.94V488.434L1069.38 521.506H990.471V504.785H960Z" fill="#101010"/>
<path d="M1113.56 400.093L1088.69 357.024H1170.36L1215.66 441.273L1170.36 521.743H1088.69L1113.56 479.052H1149.2L1166.65 441.273L1149.2 400.093H1113.56Z" fill="#101010"/>
<path d="M1434.42 462.937V576.273L1372 610.831L1321.46 610.459V610.088V577.016H1403.21V479.287H1338.18V511.987H1372V544.687H1305.48V479.287L1325.04 446.215H1403.95V462.937H1434.42Z" fill="#101010"/>
<path d="M1280.86 567.628L1305.74 610.696H1224.06L1178.77 526.448L1224.06 445.978H1305.74L1280.86 488.669H1245.22L1227.77 526.448L1245.22 567.628H1280.86Z" fill="#101010"/>
<path d="M960 683.23V569.894L1022.43 535.335L1072.96 535.707V536.079V569.151H991.214V666.88H1056.24V634.179H1022.43V601.479H1088.94V666.88L1069.38 699.952H990.471V683.23H960Z" fill="#101010"/>
<path d="M1113.56 578.538L1088.69 535.47H1170.36L1215.66 619.718L1170.36 700.188H1088.69L1113.56 657.497H1149.2L1166.65 619.718L1149.2 578.538H1113.56Z" fill="#101010"/>
<path d="M1434.42 641.516V754.852L1372 789.411L1321.46 789.039V788.667V755.596H1403.21V657.866H1338.18V690.567H1372V723.267H1305.48V657.866L1325.04 624.794H1403.95V641.516H1434.42Z" fill="#101010"/>
<path d="M1280.86 746.208L1305.74 789.276H1224.06L1178.77 705.028L1224.06 624.558H1305.74L1280.86 667.249H1245.22L1227.77 705.028L1245.22 746.208H1280.86Z" fill="#101010"/>
<path d="M960 854.811V741.475L1022.43 706.917L1072.96 707.288V707.66V740.732H991.214V838.461H1056.24V805.761H1022.43V773.06H1088.94V838.461L1069.38 871.533H990.471V854.811H960Z" fill="#101010"/>
<path d="M1113.56 750.119L1088.69 707.051H1170.36L1215.66 791.299L1170.36 871.769H1088.69L1113.56 829.078H1149.2L1166.65 791.299L1149.2 750.119H1113.56Z" fill="#101010"/>
<path d="M1434.42 812.963V926.299L1372 960.857L1321.46 960.486V960.114V927.042H1403.21V829.313H1338.18V862.013H1372V894.714H1305.48V829.313L1325.04 796.241H1403.95V812.963H1434.42Z" fill="#101010"/>
<path d="M1280.86 917.654L1305.74 960.723H1224.06L1178.77 876.474L1224.06 796.004H1305.74L1280.86 838.695H1245.22L1227.77 876.474L1245.22 917.654H1280.86Z" fill="#101010"/>
<path d="M960 1033.26V919.92L1022.43 885.361L1072.96 885.733V886.105V919.176H991.214V1016.91H1056.24V984.205H1022.43V951.505H1088.94V1016.91L1069.38 1049.98H990.471V1033.26H960Z" fill="#101010"/>
<path d="M1113.56 928.564L1088.69 885.496H1170.36L1215.66 969.744L1170.36 1050.21H1088.69L1113.56 1007.52H1149.2L1166.65 969.744L1149.2 928.564H1113.56Z" fill="#101010"/>
<path d="M1434.42 991.408V1104.74L1372 1139.3L1321.46 1138.93V1138.56V1105.49H1403.21V1007.76H1338.18V1040.46H1372V1073.16H1305.48V1007.76L1325.04 974.686H1403.95V991.408H1434.42Z" fill="#101010"/>
<path d="M1280.86 1096.1L1305.74 1139.17H1224.06L1178.77 1054.92L1224.06 974.449H1305.74L1280.86 1017.14H1245.22L1227.77 1054.92L1245.22 1096.1H1280.86Z" fill="#0D0D0D"/>
<path d="M960 1211.7V1098.36L1022.43 1063.81L1072.96 1064.18V1064.55V1097.62H991.214V1195.35H1056.24V1162.65H1022.43V1129.95H1088.94V1195.35L1069.38 1228.42H990.471V1211.7H960Z" fill="#101010"/>
<path d="M1113.56 1107.01L1088.69 1063.94H1170.36L1215.66 1148.19L1170.36 1228.66H1088.69L1113.56 1185.97H1149.2L1166.65 1148.19L1149.2 1107.01H1113.56Z" fill="#101010"/>
<path d="M1434.42 1169.85V1283.19L1372 1317.75L1321.46 1317.38V1317V1283.93H1403.21V1186.2H1338.18V1218.9H1372V1251.6H1305.48V1186.2L1325.04 1153.13H1403.95V1169.85H1434.42Z" fill="#101010"/>
<path d="M1280.86 1274.54L1305.74 1317.61H1224.06L1178.77 1233.36L1224.06 1152.89H1305.74L1280.86 1195.59H1245.22L1227.77 1233.36L1245.22 1274.54H1280.86Z" fill="#101010"/>
<path d="M960 1390.15V1276.81L1022.43 1242.25L1072.96 1242.62V1242.99V1276.07H991.214V1373.8H1056.24V1341.1H1022.43V1308.39H1088.94V1373.8L1069.38 1406.87H990.471V1390.15H960Z" fill="#101010"/>
<path d="M1113.56 1285.45L1088.69 1242.39H1170.36L1215.66 1326.63L1170.36 1407.1H1088.69L1113.56 1364.41H1149.2L1166.65 1326.63L1149.2 1285.45H1113.56Z" fill="#101010"/>
<path d="M1434.42 1348.43V1461.77L1372 1496.33L1321.46 1495.96V1495.58V1462.51H1403.21V1364.78H1338.18V1397.48H1372V1430.18H1305.48V1364.78L1325.04 1331.71H1403.95V1348.43H1434.42Z" fill="#101010"/>
<path d="M1280.86 1453.12L1305.74 1496.19H1224.06L1178.77 1411.94L1224.06 1331.47H1305.74L1280.86 1374.16H1245.22L1227.77 1411.94L1245.22 1453.12H1280.86Z" fill="#101010"/>
<path d="M1445.58 147.894V34.5583L1508 0L1558.54 0.371594V0.743188V33.8151H1476.79V131.544H1541.82V98.844H1508V66.1438H1574.52V131.544L1554.96 164.616H1476.05V147.894H1445.58Z" fill="#101010"/>
<path d="M1599.14 43.2034L1574.26 0.134766H1655.94L1701.23 84.383L1655.94 164.853H1574.26L1599.14 122.162H1634.78L1652.23 84.383L1634.78 43.2034H1599.14Z" fill="#101010"/>
<path d="M1920 106.046V219.383L1857.57 253.941L1807.04 253.569V253.198V220.126H1888.79V122.397H1823.76V155.097H1857.57V187.797H1791.06V122.397L1810.62 89.3247H1889.53V106.046H1920Z" fill="#101010"/>
<path d="M1766.44 210.738L1791.31 253.806H1709.64L1664.34 169.558L1709.64 89.0877H1791.31L1766.44 131.778H1730.8L1713.35 169.558L1730.8 210.738H1766.44Z" fill="#101010"/>
<path d="M1445.58 326.339V213.003L1508 178.445L1558.54 178.816V179.188V212.26H1476.79V309.989H1541.82V277.289H1508V244.589H1574.52V309.989L1554.96 343.061H1476.05V326.339H1445.58Z" fill="#101010"/>
<path d="M1599.14 221.648L1574.26 178.58H1655.94L1701.23 262.828L1655.94 343.298H1574.26L1599.14 300.607H1634.78L1652.23 262.828L1634.78 221.648H1599.14Z" fill="#101010"/>
<path d="M1920 284.491V397.827L1857.57 432.386L1807.04 432.014V431.643V398.571H1888.79V300.841H1823.76V333.542H1857.57V366.242H1791.06V300.841L1810.62 267.77H1889.53V284.491H1920Z" fill="#101010"/>
<path d="M1766.44 389.183L1791.31 432.251H1709.64L1664.34 348.003L1709.64 267.533H1791.31L1766.44 310.224H1730.8L1713.35 348.003L1730.8 389.183H1766.44Z" fill="#101010"/>
<path d="M1445.58 504.785V391.448L1508 356.89L1558.54 357.262V357.633V390.705H1476.79V488.434H1541.82V455.734H1508V423.034H1574.52V488.434L1554.96 521.506H1476.05V504.785H1445.58Z" fill="#101010"/>
<path d="M1599.14 400.093L1574.26 357.025H1655.94L1701.23 441.273L1655.94 521.743H1574.26L1599.14 479.053H1634.78L1652.23 441.273L1634.78 400.093H1599.14Z" fill="#101010"/>
<path d="M1920 462.937V576.273L1857.57 610.831L1807.04 610.459V610.088V577.016H1888.79V479.287H1823.76V511.987H1857.57V544.687H1791.06V479.287L1810.62 446.215H1889.53V462.937H1920Z" fill="#101010"/>
<path d="M1766.44 567.628L1791.31 610.696H1709.64L1664.34 526.448L1709.64 445.978H1791.31L1766.44 488.669H1730.8L1713.35 526.448L1730.8 567.628H1766.44Z" fill="#101010"/>
<path d="M1445.58 683.23V569.894L1508 535.335L1558.54 535.707V536.079V569.151H1476.79V666.88H1541.82V634.179H1508V601.479H1574.52V666.88L1554.96 699.952H1476.05V683.23H1445.58Z" fill="#101010"/>
<path d="M1599.14 578.538L1574.26 535.47H1655.94L1701.23 619.718L1655.94 700.188H1574.26L1599.14 657.497H1634.78L1652.23 619.718L1634.78 578.538H1599.14Z" fill="#101010"/>
<path d="M1920 641.516V754.852L1857.57 789.411L1807.04 789.039V788.667V755.596H1888.79V657.866H1823.76V690.567H1857.57V723.267H1791.06V657.866L1810.62 624.794H1889.53V641.516H1920Z" fill="#101010"/>
<path d="M1766.44 746.208L1791.31 789.276H1709.64L1664.34 705.028L1709.64 624.558H1791.31L1766.44 667.249H1730.8L1713.35 705.028L1730.8 746.208H1766.44Z" fill="#101010"/>
<path d="M1445.58 854.811V741.475L1508 706.917L1558.54 707.288V707.66V740.732H1476.79V838.461H1541.82V805.761H1508V773.06H1574.52V838.461L1554.96 871.533H1476.05V854.811H1445.58Z" fill="#101010"/>
<path d="M1599.14 750.119L1574.26 707.051H1655.94L1701.23 791.299L1655.94 871.769H1574.26L1599.14 829.078H1634.78L1652.23 791.299L1634.78 750.119H1599.14Z" fill="#101010"/>
<path d="M1920 812.963V926.299L1857.57 960.857L1807.04 960.486V960.114V927.042H1888.79V829.313H1823.76V862.013H1857.57V894.714H1791.06V829.313L1810.62 796.241H1889.53V812.963H1920Z" fill="#101010"/>
<path d="M1766.44 917.654L1791.31 960.723H1709.64L1664.34 876.474L1709.64 796.004H1791.31L1766.44 838.695H1730.8L1713.35 876.474L1730.8 917.654H1766.44Z" fill="#101010"/>
<path d="M1445.58 1033.26V919.92L1508 885.361L1558.54 885.733V886.105V919.176H1476.79V1016.91H1541.82V984.205H1508V951.505H1574.52V1016.91L1554.96 1049.98H1476.05V1033.26H1445.58Z" fill="#101010"/>
<path d="M1599.14 928.564L1574.26 885.496H1655.94L1701.23 969.744L1655.94 1050.21H1574.26L1599.14 1007.52H1634.78L1652.23 969.744L1634.78 928.564H1599.14Z" fill="#0D0D0D"/>
<path d="M1920 991.408V1104.74L1857.57 1139.3L1807.04 1138.93V1138.56V1105.49H1888.79V1007.76H1823.76V1040.46H1857.57V1073.16H1791.06V1007.76L1810.62 974.686H1889.53V991.408H1920Z" fill="#101010"/>
<path d="M1766.44 1096.1L1791.31 1139.17H1709.64L1664.34 1054.92L1709.64 974.449H1791.31L1766.44 1017.14H1730.8L1713.35 1054.92L1730.8 1096.1H1766.44Z" fill="#101010"/>
<path d="M1445.58 1211.7V1098.36L1508 1063.81L1558.54 1064.18V1064.55V1097.62H1476.79V1195.35H1541.82V1162.65H1508V1129.95H1574.52V1195.35L1554.96 1228.42H1476.05V1211.7H1445.58Z" fill="#101010"/>
<path d="M1599.14 1107.01L1574.26 1063.94H1655.94L1701.23 1148.19L1655.94 1228.66H1574.26L1599.14 1185.97H1634.78L1652.23 1148.19L1634.78 1107.01H1599.14Z" fill="#101010"/>
<path d="M1920 1169.85V1283.19L1857.57 1317.75L1807.04 1317.38V1317V1283.93H1888.79V1186.2H1823.76V1218.9H1857.57V1251.6H1791.06V1186.2L1810.62 1153.13H1889.53V1169.85H1920Z" fill="#101010"/>
<path d="M1766.44 1274.54L1791.31 1317.61H1709.64L1664.34 1233.36L1709.64 1152.89H1791.31L1766.44 1195.59H1730.8L1713.35 1233.36L1730.8 1274.54H1766.44Z" fill="#101010"/>
<path d="M1445.58 1390.15V1276.81L1508 1242.25L1558.54 1242.62V1243V1276.07H1476.79V1373.8H1541.82V1341.1H1508V1308.4H1574.52V1373.8L1554.96 1406.87H1476.05V1390.15H1445.58Z" fill="#101010"/>
<path d="M1599.14 1285.45L1574.26 1242.39H1655.94L1701.23 1326.63L1655.94 1407.1H1574.26L1599.14 1364.41H1634.78L1652.23 1326.63L1634.78 1285.45H1599.14Z" fill="#101010"/>
<path d="M1920 1348.43V1461.77L1857.57 1496.33L1807.04 1495.96V1495.58V1462.51H1888.79V1364.78H1823.76V1397.48H1857.57V1430.18H1791.06V1364.78L1810.62 1331.71H1889.53V1348.43H1920Z" fill="#101010"/>
<path d="M1766.44 1453.12L1791.31 1496.19H1709.64L1664.34 1411.94L1709.64 1331.47H1791.31L1766.44 1374.16H1730.8L1713.35 1411.94L1730.8 1453.12H1766.44Z" fill="#101010"/>
</svg>
