<svg width="256" height="165" viewBox="0 0 256 165" fill="none" xmlns="http://www.w3.org/2000/svg">
<path d="M-1.29293e-05 147.894L-3.02118e-06 34.5583L62.4278 5.45761e-06L112.965 0.371604L112.965 0.743198L112.965 33.8151L31.2139 33.8151L31.2139 131.544L96.2429 131.544L96.2429 98.8441L62.4278 98.8441L62.4278 66.1438L128.943 66.1438L128.943 131.544L109.383 164.616L30.4707 164.616L30.4707 147.894L-1.29293e-05 147.894Z" fill="black"/>
<path d="M153.56 43.2032L128.686 0.134644L210.362 0.134651L255.656 84.3829L210.362 164.853L128.686 164.853L153.56 122.162L189.201 122.162L206.65 84.3828L189.201 43.2032L153.56 43.2032Z" fill="black"/>
</svg>
