<svg width="452" height="452" viewBox="0 0 452 452" fill="none" xmlns="http://www.w3.org/2000/svg">
<path d="M76.7441 103.798L78.8947 101.543L87.6911 105.258L83.6023 96.6065L84.8611 95.2866L93.7349 98.8661L89.5556 90.3643L91.6799 88.1369L97.561 100.966L96.1972 102.396L87.1597 98.7128L91.3191 107.511L89.9292 108.968L76.7441 103.798Z" fill="black"/>
<path d="M109.009 87.3563L110.506 89.0753L101.668 96.7766L93.0554 86.8924L101.88 79.2036L103.377 80.9225L96.7163 86.7266L98.7634 89.0759L105.31 83.3717L106.783 85.062L100.236 90.7662L102.333 93.1728L109.009 87.3563Z" fill="black"/>
<path d="M122.485 74.7814L124.915 73.0846C125.764 74.6547 125.933 76.0584 125.422 77.2957C124.904 78.5227 123.643 79.8359 121.638 81.2353C119.416 82.787 117.533 83.4986 115.991 83.3701C114.46 83.2344 112.958 82.1123 111.486 80.004C110.71 78.8927 110.19 77.8814 109.924 76.9699C109.662 76.0409 109.664 75.1817 109.932 74.3923C110.192 73.5926 110.633 72.8522 111.255 72.1712C111.876 71.4902 112.727 70.7727 113.807 70.0185C115.76 68.6553 117.397 67.9367 118.721 67.8626C120.036 67.7781 121.274 68.3892 122.434 69.6961L120.019 71.382C119.333 70.6869 118.624 70.4017 117.892 70.5264C117.171 70.6438 116.244 71.0976 115.112 71.888C114.551 72.2796 114.102 72.6318 113.765 72.9448C113.43 73.2401 113.142 73.5801 112.901 73.9648C112.67 74.3422 112.554 74.7401 112.552 75.1583C112.554 75.5588 112.657 76.0274 112.862 76.5642C113.077 77.0937 113.413 77.6856 113.87 78.3399C114.421 79.1292 114.948 79.7188 115.452 80.1085C115.956 80.4983 116.47 80.7033 116.994 80.7237C117.528 80.7368 118.046 80.6378 118.548 80.4268C119.042 80.2053 119.637 79.8517 120.333 79.3659C121.465 78.5755 122.219 77.8407 122.594 77.1615C122.97 76.4822 122.933 75.6889 122.485 74.7814Z" fill="black"/>
<path d="M140.23 69.3598L137.026 71.2196L128.777 69.0433L132.129 67.0977C132.94 66.6272 133.439 66.125 133.628 65.5911C133.827 65.0509 133.694 64.3809 133.23 63.5811C132.785 62.8143 132.316 62.3979 131.824 62.3321C131.332 62.2663 130.631 62.4973 129.722 63.025L125.761 65.3235L131.16 74.6245L128.678 76.0647L122.097 64.726L128.999 60.7203C130.566 59.8111 131.866 59.4519 132.899 59.6429C133.937 59.8166 134.844 60.5717 135.62 61.9083C137.083 64.428 136.474 66.4581 133.795 67.9985L140.23 69.3598Z" fill="black"/>
<path d="M140.336 69.2728L140.77 54.5531L143.018 53.4852L154.65 62.4743L151.749 63.8519L149.818 62.2661L143.107 65.4534L143.099 67.9603L140.336 69.2728ZM143.131 56.7341L143.12 63.1759L148.08 60.8201L143.131 56.7341Z" fill="black"/>
<path d="M163.273 50.994L164.088 53.1232L156.033 56.2083L157.956 61.2297L155.277 62.2558L150.588 50.013L161.464 45.8473L162.287 47.9942L154.089 51.1338L155.217 54.0792L163.273 50.994Z" fill="black"/>
<path d="M176.493 41.2573L177.182 43.5502L171.705 45.195L174.786 55.4582L172.039 56.2833L168.957 46.0201L163.498 47.6594L162.809 45.3665L176.493 41.2573Z" fill="black"/>
<path d="M196.815 37.1648L192.651 51.2989L190.262 51.7522L181.172 40.133L184.383 39.5238L190.892 48.3451L193.698 37.7563L196.815 37.1648Z" fill="black"/>
<path d="M201.204 36.5757L202.919 49.573L200.056 49.9508L198.34 36.9535L201.204 36.5757Z" fill="black"/>
<path d="M211.486 49.1495C209.048 49.3355 207.236 49.1373 206.048 48.5546C204.859 47.9594 204.189 46.8355 204.037 45.1829L207.031 44.9544C207.117 45.583 207.35 46.0606 207.731 46.3873C208.111 46.7139 208.578 46.9133 209.129 46.9855C209.681 47.0578 210.405 47.0596 211.302 46.9912C212.868 46.8716 213.912 46.6522 214.434 46.3329C214.968 46 215.211 45.5241 215.163 44.9052C215.123 44.3748 214.912 44.0288 214.532 43.8673C214.163 43.6922 213.582 43.5714 212.789 43.5049L208.189 43.151C205.594 42.9426 204.221 41.8469 204.07 39.864C203.874 37.3001 206.005 35.848 210.464 35.5077C212.75 35.3332 214.454 35.5333 215.578 36.1081C216.714 36.682 217.389 37.7802 217.602 39.4027L214.722 39.6225C214.578 38.7316 214.185 38.1581 213.543 37.9023C212.913 37.6454 211.948 37.5667 210.647 37.666C209.612 37.745 208.803 37.8893 208.222 38.0988C207.641 38.3083 207.277 38.5267 207.129 38.7539C206.981 38.9812 206.919 39.2527 206.943 39.5684C207.004 40.3641 207.654 40.8099 208.894 40.9058L213.398 41.248C214.944 41.3587 216.084 41.659 216.82 42.1491C217.568 42.6256 217.985 43.4258 218.071 44.5499C218.122 45.2193 218.058 45.8021 217.88 46.2985C217.702 46.7948 217.375 47.2454 216.897 47.6502C216.42 48.055 215.734 48.3806 214.838 48.6268C213.942 48.873 212.825 49.0473 211.486 49.1495Z" fill="black"/>
<path d="M219.773 43.1641L219.807 35.1842L222.695 35.1964L222.662 42.9483C222.657 44.2023 222.963 45.065 223.582 45.5362C224.201 46.0075 225.2 46.2461 226.581 46.2519C227.962 46.2578 228.963 46.0276 229.586 45.5616C230.221 45.0956 230.542 44.2356 230.547 42.9816L230.58 35.2297L233.449 35.2418L233.415 43.2218C233.407 45.0711 232.85 46.4367 231.745 47.3187C230.652 48.1881 228.927 48.6179 226.571 48.6079C224.215 48.5979 222.488 48.1536 221.39 47.275C220.304 46.3964 219.765 45.0261 219.773 43.1641Z" fill="black"/>
<path d="M233.606 48.3309L241.41 35.8428L243.89 36.0557L249.394 49.6865L246.195 49.4118L245.328 47.0681L237.927 46.4325L236.654 48.5926L233.606 48.3309ZM242.348 38.9172L239.087 44.4726L244.557 44.9423L242.348 38.9172Z" fill="black"/>
<path d="M262.066 49.3673L261.683 51.7113L250.057 49.8143L252.168 36.8754L255 37.3374L253.271 47.9323L262.066 49.3673Z" fill="black"/>
<path d="M272.976 54.8327C270.615 54.1984 268.972 53.4091 268.045 52.465C267.121 51.5086 266.863 50.2258 267.269 48.6168L270.168 49.3958C270.04 50.0173 270.102 50.5453 270.352 50.9798C270.603 51.4144 270.976 51.7574 271.473 52.0088C271.969 52.2602 272.651 52.5026 273.52 52.736C275.037 53.1436 276.094 53.2834 276.693 53.1557C277.307 53.0189 277.694 52.6509 277.855 52.0514C277.993 51.5377 277.909 51.1414 277.604 50.8626C277.314 50.5748 276.806 50.2679 276.081 49.9418L271.859 48.0796C269.481 47.0209 268.55 45.5313 269.066 43.6107C269.734 41.1275 272.226 40.466 276.544 41.6262C278.759 42.2212 280.3 42.9764 281.169 43.8918C282.05 44.8106 282.321 46.0705 281.983 47.6716L279.194 46.9222C279.354 46.0339 279.174 45.3625 278.653 44.9078C278.145 44.4565 277.261 44.0615 276.001 43.723C274.998 43.4535 274.187 43.321 273.57 43.3255C272.952 43.3301 272.536 43.4149 272.321 43.5802C272.106 43.7454 271.957 43.9809 271.875 44.2867C271.668 45.0574 272.133 45.6939 273.27 46.1962L277.405 48.0154C278.826 48.6333 279.802 49.2956 280.334 50.0024C280.881 50.7003 281.008 51.5935 280.715 52.6823C280.541 53.3306 280.288 53.8593 279.955 54.2682C279.622 54.6772 279.163 54.9933 278.579 55.2166C277.994 55.4399 277.238 55.5188 276.311 55.4534C275.385 55.388 274.273 55.1811 272.976 54.8327Z" fill="black"/>
<path d="M298.134 48.9563L297.328 51.2105L291.943 49.2849L288.335 59.3752L285.633 58.4092L289.241 48.3189L283.874 46.3997L284.68 44.1455L298.134 48.9563Z" fill="black"/>
<path d="M304.498 66.2005C303.545 66.0018 302.428 65.6104 301.149 65.0264C299.87 64.4424 298.843 63.8552 298.069 63.2647C297.305 62.6795 296.726 62.0113 296.331 61.2601C295.948 60.5141 295.799 59.6804 295.886 58.7591C295.978 57.8263 296.297 56.7607 296.844 55.5624C297.407 54.3295 298.02 53.3697 298.681 52.6832C299.359 51.9904 300.112 51.5613 300.94 51.396C301.784 51.2245 302.669 51.2386 303.594 51.4383C304.519 51.638 305.598 52.0193 306.831 52.5823C308.076 53.1505 309.071 53.7162 309.816 54.2793C310.573 54.8477 311.163 55.5071 311.586 56.2573C312.015 56.9961 312.184 57.846 312.093 58.8072C312.008 59.7568 311.683 60.848 311.12 62.0809C310.573 63.2792 309.977 64.2186 309.333 64.8988C308.705 65.5729 307.977 66.0067 307.151 66.2003C306.336 66.3991 305.452 66.3992 304.498 66.2005ZM300.153 61.8562C300.629 62.1852 301.282 62.539 302.112 62.9178C302.942 63.2966 303.631 63.5557 304.18 63.695C304.746 63.8281 305.296 63.8426 305.831 63.7387C306.366 63.6348 306.843 63.3515 307.263 62.8889C307.684 62.4262 308.094 61.7571 308.493 60.8814C308.904 59.9826 309.149 59.2173 309.229 58.5853C309.308 57.9533 309.204 57.4043 308.915 56.9384C308.643 56.4662 308.275 56.0682 307.81 55.7446C307.357 55.4262 306.71 55.0749 305.869 54.6909C305.2 54.3857 304.634 54.162 304.17 54.0197C303.722 53.8711 303.26 53.7854 302.783 53.7626C302.318 53.745 301.905 53.8418 301.544 54.0529C301.2 54.2578 300.851 54.5791 300.498 55.0166C300.157 55.4595 299.82 56.0439 299.489 56.7698C299.089 57.6455 298.852 58.3936 298.777 59.014C298.703 59.6345 298.796 60.1782 299.056 60.6451C299.328 61.1173 299.693 61.521 300.153 61.8562Z" fill="black"/>
<path d="M321.403 75.3383L318.181 73.509L315.9 65.2881L319.271 67.2019C320.086 67.6647 320.772 67.8427 321.327 67.7359C321.894 67.6354 322.406 67.1831 322.863 66.379C323.3 65.608 323.424 64.9933 323.232 64.5351C323.041 64.0768 322.488 63.5882 321.574 63.0691L317.592 60.8081L312.282 70.1598L309.787 68.7432L316.26 57.3428L323.2 61.283C324.775 62.1773 325.741 63.1189 326.097 64.1077C326.47 65.0918 326.276 66.2557 325.513 67.5996C324.074 70.133 322.014 70.6312 319.333 69.0941L321.403 75.3383Z" fill="black"/>
<path d="M332.187 66.6471L325.112 77.6845L322.681 76.126L329.756 65.0887L332.187 66.6471Z" fill="black"/>
<path d="M337.66 83.7827L336.334 85.6379L326.795 78.8236L334.416 68.1559L343.939 74.9592L342.614 76.8145L335.425 71.6788L333.614 74.2143L340.679 79.2616L339.376 81.0859L332.311 76.0387L330.455 78.636L337.66 83.7827Z" fill="black"/>
<path d="M342.445 91.0591C340.57 89.4897 339.411 88.0817 338.968 86.8351C338.533 85.5788 338.839 84.3064 339.885 83.0179L342.186 84.9451C341.809 85.4551 341.642 85.9599 341.687 86.4595C341.731 86.9592 341.925 87.4275 342.27 87.8646C342.614 88.3016 343.131 88.8089 343.821 89.3862C345.025 90.3946 345.925 90.9667 346.522 91.1027C347.136 91.2372 347.642 91.0664 348.041 90.5906C348.382 90.1827 348.473 89.788 348.314 89.4065C348.172 89.0234 347.841 88.5312 347.32 87.9299L344.275 84.4635C342.564 82.502 342.346 80.7588 343.623 79.2341C345.274 77.2626 347.813 77.7121 351.241 80.5826C352.999 82.0545 354.08 83.3885 354.482 84.5847C354.895 85.7891 354.61 87.0461 353.629 88.3558L351.415 86.5018C351.934 85.7635 352.053 85.0785 351.772 84.447C351.501 83.8236 350.866 83.0931 349.866 82.2555C349.069 81.5887 348.39 81.1273 347.828 80.8714C347.266 80.6155 346.852 80.5172 346.588 80.5766C346.323 80.636 346.089 80.787 345.886 81.0298C345.374 81.6417 345.528 82.4148 346.348 83.3493L349.332 86.7402C350.361 87.8989 350.967 88.9107 351.152 89.7756C351.354 90.6389 351.093 91.5027 350.37 92.367C349.939 92.8818 349.486 93.2545 349.012 93.4853C348.538 93.7161 347.989 93.8097 347.364 93.7661C346.74 93.7225 346.021 93.4759 345.208 93.0264C344.395 92.5768 343.474 91.9211 342.445 91.0591Z" fill="black"/>
<path d="M370.863 99.7043L369.144 101.37L365.165 97.2619L357.467 104.717L355.471 102.657L363.169 95.2011L359.203 91.1068L360.923 89.4412L370.863 99.7043Z" fill="black"/>
<path d="M373.923 103.36L369.788 106.767L374.91 112.985L379.046 109.578L380.87 111.792L370.752 120.128L368.927 117.914L373.077 114.495L367.955 108.278L363.805 111.697L361.981 109.482L372.099 101.146L373.923 103.36Z" fill="black"/>
<path d="M371.179 120.614L385.767 118.603L387.192 120.643L380.255 133.603L378.415 130.971L379.659 128.804L375.404 122.714L372.931 123.122L371.179 120.614ZM384.007 121.293L377.652 122.349L380.797 126.85L384.007 121.293Z" fill="black"/>
<path d="M397.571 137.395L395.513 138.618L392.592 133.701L383.379 139.173L381.914 136.706L391.127 131.234L388.216 126.333L390.275 125.111L397.571 137.395Z" fill="black"/>
<path d="M388.607 148.66L400.534 143.217L403.295 149.267C403.815 150.408 404.168 151.395 404.354 152.229C404.552 153.058 404.574 153.87 404.421 154.663C404.273 155.469 403.865 156.191 403.196 156.83C402.532 157.481 401.584 158.088 400.351 158.651C399.199 159.177 398.176 159.483 397.283 159.571C396.39 159.658 395.587 159.516 394.875 159.145C394.163 158.774 393.533 158.233 392.986 157.522C392.438 156.811 391.899 155.874 391.368 154.71L388.607 148.66ZM393.273 153.485C393.626 154.257 393.959 154.864 394.272 155.306C394.585 155.748 394.963 156.104 395.407 156.375C395.851 156.646 396.371 156.75 396.969 156.686C397.578 156.617 398.303 156.39 399.144 156.006C399.755 155.728 400.261 155.448 400.662 155.168C401.068 154.899 401.373 154.606 401.577 154.29C401.781 153.974 401.922 153.673 402 153.387C402.079 153.101 402.074 152.755 401.986 152.349C401.915 151.95 401.815 151.578 401.686 151.233C401.556 150.889 401.368 150.445 401.121 149.904L399.685 146.758L391.838 150.339L393.273 153.485Z" fill="black"/>
<path d="M399.519 175.394L398.263 171.908L401.881 164.182L403.195 167.828C403.513 168.71 403.917 169.291 404.409 169.572C404.905 169.865 405.588 169.854 406.458 169.541C407.292 169.24 407.785 168.854 407.938 168.381C408.091 167.909 407.989 167.178 407.633 166.189L406.081 161.881L395.963 165.527L394.991 162.828L407.324 158.383L410.03 165.89C410.644 167.595 410.764 168.938 410.391 169.921C410.035 170.911 409.129 171.668 407.676 172.192C404.935 173.179 403.046 172.217 402.011 169.305L399.519 175.394Z" fill="black"/>
<path d="M413.363 175.813L400.808 179.588L399.977 176.822L412.531 173.047L413.363 175.813Z" fill="black"/>
<path d="M417.489 192.808L403.178 189.298L402.615 186.932L413.804 177.318L414.56 180.497L406.048 187.405L416.754 189.721L417.489 192.808Z" fill="black"/>
<path d="M408.884 207.725L406.631 208.078L404.816 196.496L417.768 194.467L419.58 206.029L417.328 206.382L415.96 197.654L412.882 198.136L414.226 206.715L412.011 207.062L410.667 198.484L407.513 198.978L408.884 207.725Z" fill="black"/>
<path d="M414.604 224.398L414.453 224.406C414.33 226.429 413.389 227.487 411.631 227.578C410.391 227.643 409.454 227.299 408.818 226.545C408.183 225.792 407.823 224.606 407.739 222.987L407.3 214.562L420.392 213.88L420.815 222.001C420.901 223.658 420.691 224.861 420.185 225.611C419.679 226.373 418.794 226.787 417.529 226.852C416.795 226.891 416.176 226.688 415.671 226.245C415.166 225.802 414.81 225.187 414.604 224.398ZM413.323 222.087L413.065 217.135L409.669 217.312L409.929 222.302C409.974 223.162 410.133 223.782 410.406 224.16C410.68 224.552 411.127 224.732 411.747 224.699C412.405 224.665 412.845 224.458 413.066 224.079C413.288 223.712 413.374 223.048 413.323 222.087ZM418.564 221.528L418.321 216.861L415.039 217.032L415.284 221.737C415.326 222.547 415.484 223.135 415.756 223.501C416.042 223.867 416.501 224.033 417.133 224C417.74 223.969 418.143 223.776 418.34 223.424C418.537 223.071 418.612 222.439 418.564 221.528Z" fill="black"/>
<path d="M413.119 229.146L421.096 229.369L421.015 232.256L413.266 232.039C412.013 232.004 411.143 232.29 410.657 232.897C410.172 233.505 409.909 234.499 409.871 235.879C409.832 237.259 410.039 238.266 410.49 238.899C410.94 239.545 411.793 239.886 413.046 239.921L420.795 240.137L420.715 243.005L412.738 242.782C410.889 242.731 409.537 242.142 408.682 241.015C407.839 239.902 407.45 238.168 407.516 235.813C407.581 233.458 408.067 231.742 408.971 230.665C409.875 229.6 411.258 229.094 413.119 229.146Z" fill="black"/>
<path d="M406.488 250.805C406.755 248.375 407.285 246.63 408.076 245.57C408.881 244.512 410.109 244.06 411.761 244.216L411.433 247.2C410.8 247.169 410.287 247.31 409.896 247.624C409.505 247.938 409.223 248.359 409.05 248.888C408.877 249.417 408.742 250.129 408.643 251.023C408.472 252.584 408.495 253.65 408.712 254.222C408.941 254.808 409.364 255.135 409.981 255.203C410.51 255.261 410.889 255.118 411.118 254.773C411.358 254.443 411.584 253.894 411.795 253.127L412.992 248.671C413.676 246.16 415.006 245.012 416.983 245.23C419.539 245.51 420.573 247.873 420.084 252.318C419.834 254.597 419.323 256.235 418.55 257.234C417.777 258.244 416.573 258.705 414.939 258.614L415.254 255.744C416.157 255.766 416.793 255.486 417.163 254.902C417.531 254.331 417.787 253.397 417.929 252.1C418.043 251.068 418.05 250.246 417.951 249.637C417.853 249.027 417.705 248.628 417.509 248.441C417.313 248.254 417.058 248.143 416.743 248.109C415.95 248.021 415.392 248.578 415.069 249.779L413.901 254.142C413.507 255.641 413.001 256.707 412.384 257.34C411.778 257.987 410.914 258.249 409.794 258.126C409.126 258.052 408.565 257.882 408.11 257.616C407.655 257.349 407.273 256.944 406.963 256.4C406.653 255.856 406.46 255.122 406.383 254.196C406.307 253.27 406.342 252.14 406.488 250.805Z" fill="black"/>
<path d="M418.227 264.409L405.298 262.243L405.775 259.395L418.705 261.561L418.227 264.409Z" fill="black"/>
<path d="M417.698 267.096L417.251 269.06L406.356 276.189L415.175 278.194L414.568 280.862L401.784 277.956L402.239 275.955L413.071 268.85L404.307 266.858L404.914 264.19L417.698 267.096Z" fill="black"/>
<path d="M399.978 291.588L397.802 290.906L401.309 279.719L413.818 283.64L410.318 294.809L408.142 294.127L410.785 285.696L407.811 284.764L405.214 293.05L403.075 292.379L405.672 284.094L402.626 283.139L399.978 291.588Z" fill="black"/>
<path d="M394.549 298.392C395.459 296.123 396.437 294.585 397.485 293.776C398.544 292.973 399.848 292.868 401.398 293.462L400.281 296.248C399.679 296.048 399.147 296.046 398.686 296.244C398.225 296.441 397.84 296.771 397.531 297.234C397.223 297.697 396.901 298.346 396.566 299.181C395.982 300.639 395.718 301.672 395.774 302.282C395.837 302.907 396.156 303.336 396.732 303.567C397.226 303.765 397.629 303.728 397.942 303.458C398.263 303.204 398.628 302.737 399.037 302.055L401.387 298.084C402.72 295.848 404.31 295.1 406.155 295.84C408.542 296.797 408.903 299.351 407.239 303.501C406.386 305.629 405.453 307.07 404.441 307.824C403.425 308.59 402.141 308.71 400.592 308.185L401.667 305.504C402.53 305.768 403.218 305.669 403.731 305.206C404.239 304.755 404.736 303.924 405.222 302.713C405.608 301.749 405.836 300.96 405.905 300.346C405.973 299.732 405.938 299.309 405.8 299.076C405.661 298.843 405.445 298.667 405.151 298.549C404.41 298.252 403.723 298.639 403.09 299.708L400.793 303.598C400.011 304.936 399.238 305.827 398.473 306.271C397.715 306.731 396.813 306.751 395.767 306.332C395.144 306.082 394.649 305.768 394.282 305.389C393.916 305.01 393.656 304.517 393.504 303.91C393.351 303.303 393.362 302.543 393.537 301.63C393.712 300.718 394.049 299.639 394.549 298.392Z" fill="black"/>
<path d="M388.399 312.044C389.496 309.86 390.601 308.409 391.713 307.691C392.835 306.98 394.144 306.985 395.638 307.707L394.291 310.39C393.708 310.14 393.178 310.093 392.702 310.251C392.226 310.409 391.815 310.705 391.468 311.141C391.122 311.576 390.747 312.196 390.343 313C389.638 314.403 389.288 315.411 389.292 316.023C389.302 316.651 389.585 317.105 390.139 317.384C390.615 317.622 391.02 317.62 391.354 317.377C391.695 317.151 392.098 316.716 392.564 316.071L395.239 312.312C396.755 310.196 398.402 309.585 400.179 310.477C402.477 311.632 402.622 314.207 400.615 318.202C399.586 320.251 398.535 321.608 397.463 322.275C396.386 322.952 395.097 322.964 393.597 322.31L394.893 319.729C395.731 320.065 396.425 320.024 396.975 319.606C397.52 319.199 398.085 318.413 398.671 317.247C399.137 316.319 399.43 315.552 399.55 314.946C399.67 314.34 399.671 313.915 399.553 313.671C399.434 313.427 399.233 313.234 398.95 313.092C398.237 312.734 397.52 313.061 396.799 314.074L394.183 317.757C393.292 319.024 392.446 319.846 391.647 320.225C390.853 320.62 389.952 320.564 388.945 320.058C388.345 319.757 387.878 319.402 387.545 318.993C387.211 318.585 386.994 318.072 386.893 317.454C386.793 316.836 386.868 316.08 387.119 315.186C387.369 314.291 387.796 313.244 388.399 312.044Z" fill="black"/>
<path d="M382.832 332.246L384.6 333.396L380.271 340.054L378.502 338.905C376.952 337.896 376.18 336.632 376.187 335.11C376.195 333.589 376.864 331.804 378.197 329.754C378.922 328.639 379.623 327.758 380.301 327.111C380.979 326.463 381.709 326.002 382.493 325.726C383.288 325.457 384.139 325.436 385.048 325.665C385.957 325.893 386.964 326.367 388.069 327.085C389.205 327.823 390.064 328.571 390.645 329.326C391.23 330.1 391.547 330.902 391.595 331.734C391.647 332.584 391.516 333.436 391.203 334.29C390.882 335.154 390.37 336.128 389.666 337.211C388.382 339.186 387.126 340.478 385.9 341.086C384.678 341.711 383.314 341.648 381.809 340.895L383.404 338.442C384.262 338.819 385.004 338.803 385.632 338.396C386.253 337.999 386.96 337.189 387.754 335.968C388.134 335.384 388.422 334.884 388.617 334.467C388.816 334.068 388.956 333.644 389.035 333.197C389.107 332.761 389.062 332.354 388.9 331.976C388.748 331.605 388.476 331.21 388.085 330.789C387.697 330.386 387.164 329.964 386.484 329.522C385.677 328.997 384.97 328.643 384.364 328.461C383.751 328.288 383.194 328.297 382.694 328.485C382.193 328.673 381.75 328.96 381.365 329.343C380.983 329.745 380.557 330.307 380.088 331.029C379.273 332.282 378.82 333.362 378.728 334.27C378.63 335.188 379.038 335.944 379.951 336.537L380.015 336.579L382.832 332.246Z" fill="black"/>
<path d="M365.213 348.004L367.492 345.082L375.957 344.022L373.573 347.078C372.997 347.817 372.721 348.47 372.746 349.035C372.763 349.611 373.136 350.183 373.865 350.751C374.564 351.297 375.154 351.508 375.636 351.385C376.117 351.263 376.681 350.787 377.327 349.958L380.143 346.347L371.663 339.733L373.428 337.471L383.766 345.534L378.858 351.826C377.744 353.254 376.672 354.073 375.642 354.281C374.614 354.508 373.491 354.146 372.272 353.195C369.975 351.404 369.782 349.293 371.692 346.864L365.213 348.004Z" fill="black"/>
<path d="M356.805 357.181C357.293 356.337 358.015 355.4 358.97 354.369C359.926 353.338 360.806 352.547 361.61 351.997C362.405 351.456 363.221 351.116 364.058 350.976C364.887 350.846 365.725 350.967 366.573 351.338C367.43 351.718 368.341 352.356 369.307 353.251C370.301 354.172 371.02 355.055 371.465 355.899C371.91 356.76 372.081 357.61 371.978 358.447C371.876 359.302 371.585 360.138 371.105 360.954C370.625 361.77 369.925 362.675 369.003 363.669C368.073 364.672 367.224 365.439 366.455 365.97C365.678 366.511 364.867 366.864 364.022 367.031C363.186 367.206 362.326 367.099 361.442 366.712C360.567 366.333 359.632 365.682 358.638 364.761C357.672 363.865 356.967 363.005 356.524 362.179C356.081 361.371 355.897 360.545 355.973 359.699C356.04 358.863 356.317 358.024 356.805 357.181ZM362.293 354.418C361.831 354.767 361.29 355.276 360.67 355.945C360.05 356.614 359.588 357.187 359.284 357.665C358.98 358.16 358.793 358.678 358.724 359.219C358.655 359.759 358.774 360.301 359.081 360.845C359.389 361.389 359.896 361.989 360.602 362.643C361.326 363.315 361.976 363.787 362.551 364.061C363.126 364.335 363.68 364.408 364.213 364.281C364.747 364.171 365.24 363.946 365.693 363.606C366.138 363.276 366.675 362.771 367.303 362.093C367.803 361.554 368.193 361.087 368.473 360.691C368.755 360.313 368.981 359.901 369.153 359.455C369.315 359.019 369.353 358.596 369.266 358.187C369.179 357.796 368.984 357.364 368.679 356.892C368.366 356.428 367.916 355.926 367.331 355.383C366.625 354.729 365.989 354.269 365.423 354.003C364.858 353.738 364.312 353.656 363.787 353.756C363.254 353.866 362.755 354.087 362.293 354.418Z" fill="black"/>
<path d="M362.453 370.253L360.109 372.306L351.681 367.818L354.979 376.801L353.607 378.003L345.089 373.643L348.49 382.485L346.175 384.513L341.466 371.209L342.953 369.907L351.624 374.385L348.269 365.25L349.784 363.922L362.453 370.253Z" fill="black"/>
<path d="M333.575 393.638L332.181 391.692L336.829 388.36L330.585 379.651L332.917 377.979L339.16 386.688L343.793 383.367L345.188 385.313L333.575 393.638Z" fill="black"/>
<path d="M329.51 396.127L326.747 391.536L319.844 395.689L322.607 400.28L320.148 401.759L313.39 390.525L315.848 389.046L318.62 393.654L325.523 389.501L322.751 384.893L325.209 383.414L331.968 394.648L329.51 396.127Z" fill="black"/>
<path d="M183.816 416.005L184.251 413.767L192.718 415.413L193.744 410.135L196.561 410.683L194.059 423.552L182.626 421.329L183.064 419.072L191.681 420.747L192.283 417.651L183.816 416.005Z" fill="black"/>
<path d="M182.524 413.105L180.413 420.801L177.628 420.037L179.678 412.561C180.01 411.351 179.939 410.439 179.464 409.823C178.989 409.206 178.086 408.716 176.755 408.351C175.423 407.985 174.396 407.947 173.674 408.234C172.939 408.519 172.406 409.266 172.074 410.475L170.024 417.951L167.257 417.192L169.368 409.496C169.857 407.713 170.75 406.539 172.047 405.976C173.329 405.421 175.106 405.455 177.378 406.078C179.65 406.702 181.202 407.58 182.034 408.715C182.853 409.846 183.016 411.309 182.524 413.105Z" fill="black"/>
<path d="M157.217 402.29L158.019 400.055L169.107 404.032L164.681 416.372L161.981 415.403L165.605 405.299L157.217 402.29Z" fill="black"/>
<path d="M145.427 397.162L146.374 394.985L157.176 399.685L151.945 411.706L149.314 410.561L153.598 400.718L145.427 397.162Z" fill="black"/>
<path d="M129.558 390.911L126.976 389.455C128.024 388.01 129.215 387.25 130.552 387.174C131.882 387.11 133.612 387.678 135.742 388.878C138.103 390.209 139.56 391.597 140.112 393.043C140.653 394.482 140.293 396.321 139.03 398.561C138.365 399.742 137.679 400.65 136.972 401.284C136.249 401.923 135.473 402.293 134.646 402.393C133.812 402.505 132.954 402.428 132.071 402.163C131.188 401.898 130.173 401.442 129.025 400.796C126.95 399.626 125.593 398.461 124.953 397.301C124.307 396.152 124.322 394.771 124.997 393.16L127.563 394.606C127.233 395.526 127.283 396.288 127.713 396.893C128.131 397.493 128.942 398.131 130.144 398.809C130.74 399.145 131.252 399.397 131.681 399.566C132.092 399.74 132.523 399.852 132.974 399.903C133.414 399.947 133.823 399.88 134.201 399.7C134.561 399.525 134.939 399.229 135.334 398.812C135.718 398.388 136.106 397.829 136.498 397.134C136.97 396.295 137.273 395.565 137.406 394.942C137.539 394.319 137.501 393.767 137.293 393.286C137.073 392.798 136.76 392.374 136.352 392.014C135.938 391.664 135.362 391.281 134.623 390.864C133.42 390.187 132.431 389.826 131.656 389.781C130.881 389.737 130.182 390.114 129.558 390.911Z" fill="black"/>
<path d="M121.926 396.44L119.161 394.56L118.888 386.515L111.384 389.27L108.667 387.421L118.933 383.949L121.444 380.257L123.817 381.871L121.337 385.516L121.926 396.44Z" fill="black"/>
<path d="M104.191 372.658L101.892 370.788C103.168 369.54 104.472 368.992 105.802 369.143C107.124 369.305 108.733 370.157 110.629 371.7C112.732 373.41 113.933 375.025 114.233 376.543C114.523 378.052 113.857 379.805 112.234 381.799C111.379 382.85 110.549 383.629 109.746 384.135C108.925 384.642 108.098 384.876 107.265 384.835C106.425 384.804 105.592 384.584 104.766 384.174C103.941 383.763 103.017 383.142 101.995 382.311C100.148 380.808 99.0073 379.431 98.5725 378.179C98.1298 376.937 98.3774 375.579 99.3154 374.105L101.6 375.963C101.12 376.814 101.04 377.574 101.361 378.243C101.672 378.905 102.363 379.671 103.434 380.542C103.965 380.974 104.427 381.309 104.821 381.548C105.197 381.788 105.603 381.972 106.039 382.098C106.465 382.216 106.88 382.219 107.282 382.105C107.667 381.994 108.089 381.766 108.549 381.421C108.999 381.069 109.476 380.583 109.979 379.964C110.587 379.218 111.009 378.549 111.245 377.957C111.482 377.365 111.538 376.815 111.413 376.306C111.279 375.788 111.041 375.317 110.701 374.893C110.352 374.479 109.849 374.004 109.19 373.468C108.119 372.597 107.206 372.074 106.45 371.899C105.693 371.725 104.94 371.978 104.191 372.658Z" fill="black"/>
<path d="M93.5253 359.926L95.1633 358.206L103.693 366.331L94.651 375.824L92.5736 373.845L99.9776 366.072L93.5253 359.926Z" fill="black"/>
<path d="M85.0211 350.4L86.7107 348.869L94.5818 357.557L84.8663 366.359L77.008 357.686L78.6976 356.155L84.6297 362.702L86.9389 360.61L81.1089 354.175L82.7704 352.67L88.6003 359.105L90.9659 356.962L85.0211 350.4Z" fill="black"/>
<path d="M67.9726 338.07C69.3611 337.05 70.6346 336.634 71.793 336.82C72.9439 336.996 74.0218 337.769 75.0264 339.137L78.2092 343.47L80.8891 341.502L82.5873 343.815L72.0206 351.575L67.1622 344.959C66.0975 343.509 65.6289 342.251 65.7562 341.183C65.8657 340.112 66.6046 339.075 67.9726 338.07ZM69.2729 344.046L72.1295 347.935L76.4021 344.798L73.523 340.877C72.9907 340.152 72.4286 339.74 71.8368 339.64C71.2348 339.548 70.5254 339.802 69.7086 340.402C68.9123 340.987 68.4888 341.533 68.438 342.042C68.3873 342.551 68.6656 343.219 69.2729 344.046Z" fill="black"/>
<path d="M66.9543 320.621L68.9044 323.771L66.9635 332.079L64.9233 328.783C64.43 327.986 63.9138 327.501 63.3747 327.328C62.8291 327.145 62.1631 327.296 61.3769 327.783C60.623 328.25 60.2201 328.73 60.1683 329.224C60.1165 329.718 60.3673 330.412 60.9207 331.306L63.3309 335.199L72.4746 329.539L73.9847 331.978L62.8377 338.879L58.6375 332.093C57.6841 330.553 57.2881 329.264 57.4497 328.225C57.5938 327.183 58.3228 326.255 59.6368 325.441C62.1139 323.908 64.1605 324.459 65.7765 327.093L66.9543 320.621Z" fill="black"/>
<path d="M61.2633 309.552C61.8849 310.302 62.5135 311.304 63.1492 312.558C63.7849 313.812 64.2214 314.912 64.4588 315.856C64.6905 316.79 64.7265 317.673 64.5668 318.507C64.4014 319.329 63.9976 320.074 63.3555 320.74C62.702 321.412 61.7878 322.046 60.6128 322.641C59.4039 323.254 58.3268 323.622 57.3814 323.747C56.4191 323.865 55.5629 323.731 54.8131 323.344C54.0462 322.952 53.3633 322.389 52.7645 321.656C52.1657 320.923 51.5599 319.952 50.9471 318.743C50.3287 317.523 49.9036 316.46 49.6721 315.555C49.4348 314.639 49.3847 313.755 49.5216 312.905C49.6473 312.06 50.0453 311.29 50.7156 310.595C51.3746 309.906 52.3085 309.256 53.5174 308.643C54.6924 308.047 55.7441 307.685 56.6724 307.555C57.5837 307.42 58.4227 307.534 59.1895 307.898C59.9505 308.251 60.6418 308.802 61.2633 309.552ZM61.9511 315.658C61.7838 315.103 61.4939 314.42 61.0816 313.606C60.6693 312.793 60.292 312.16 59.9496 311.709C59.5902 311.252 59.1691 310.898 58.6862 310.645C58.2033 310.393 57.6534 310.317 57.0365 310.416C56.4196 310.516 55.6818 310.784 54.8231 311.219C53.9419 311.665 53.273 312.111 52.8166 312.555C52.3602 313 52.0995 313.494 52.0345 314.038C51.9525 314.577 51.9923 315.117 52.1538 315.66C52.3097 316.192 52.5967 316.87 53.0147 317.695C53.3469 318.35 53.65 318.878 53.9241 319.279C54.1812 319.674 54.489 320.029 54.8476 320.345C55.2005 320.649 55.5839 320.831 55.9977 320.891C56.3946 320.945 56.8674 320.911 57.4162 320.789C57.9593 320.656 58.5867 320.409 59.2985 320.048C60.1572 319.613 60.8091 319.176 61.2542 318.738C61.6993 318.299 61.9657 317.816 62.0535 317.289C62.1355 316.75 62.1014 316.206 61.9511 315.658Z" fill="black"/>
<path d="M58.7233 304.28L46.541 309.124L44.0839 302.945C43.6206 301.78 43.3168 300.776 43.1727 299.933C43.0168 299.096 43.035 298.284 43.2271 297.499C43.4145 296.702 43.8582 296.001 44.558 295.395C45.2532 294.778 46.2304 294.219 47.4899 293.718C48.6669 293.25 49.7035 292.995 50.5998 292.952C51.4961 292.909 52.2907 293.091 52.9838 293.497C53.6768 293.903 54.279 294.474 54.7902 295.212C55.3015 295.949 55.7935 296.912 56.2662 298.101L58.7233 304.28ZM54.3022 299.229C53.9886 298.441 53.6864 297.818 53.3957 297.361C53.105 296.904 52.7447 296.529 52.3148 296.237C51.885 295.944 51.3701 295.815 50.7703 295.849C50.1586 295.888 49.4232 296.078 48.564 296.42C47.9401 296.668 47.421 296.922 47.0065 297.182C46.5873 297.431 46.268 297.708 46.0486 298.013C45.8292 298.318 45.6734 298.612 45.5811 298.894C45.4888 299.176 45.4763 299.522 45.5437 299.931C45.5946 300.334 45.6762 300.71 45.7883 301.061C45.9005 301.411 46.0666 301.863 46.2866 302.417L47.5643 305.63L55.5799 302.443L54.3022 299.229Z" fill="black"/>
<path d="M48.1906 291.457L40.5553 293.777L39.7156 291.014L47.1328 288.76C48.3326 288.396 49.0665 287.848 49.3345 287.118C49.6024 286.388 49.5357 285.363 49.1343 284.042C48.7329 282.721 48.2177 281.831 47.5889 281.374C46.9563 280.904 46.0401 280.851 44.8403 281.216L37.4231 283.47L36.589 280.725L44.2243 278.405C45.9937 277.867 47.4629 277.996 48.6316 278.793C49.7846 279.581 50.7035 281.102 51.3885 283.357C52.0735 285.611 52.1581 287.392 51.6422 288.701C51.1227 289.997 49.9721 290.916 48.1906 291.457Z" fill="black"/>
<path d="M41.8673 264.741L41.2532 261.841C43.03 261.672 44.3884 262.064 45.3283 263.018C46.2558 263.973 46.9728 265.647 47.4793 268.039C48.0409 270.691 47.9618 272.701 47.2419 274.071C46.5194 275.428 44.9004 276.373 42.3849 276.906C41.0589 277.187 39.9246 277.271 38.9818 277.16C38.024 277.04 37.2339 276.702 36.6115 276.147C35.9767 275.596 35.467 274.901 35.0824 274.063C34.6978 273.225 34.3691 272.162 34.0962 270.873C33.6028 268.543 33.5801 266.755 34.0281 265.508C34.4637 264.263 35.5093 263.362 37.165 262.804L37.7751 265.685C36.8675 266.046 36.3283 266.587 36.1576 267.31C35.9843 268.02 36.0406 269.05 36.3267 270.401C36.4684 271.07 36.6175 271.621 36.7739 272.054C36.9153 272.477 37.1161 272.875 37.3762 273.247C37.6336 273.607 37.9546 273.869 38.339 274.034C38.7085 274.188 39.1802 274.276 39.7543 274.297C40.3258 274.306 41.0019 274.227 41.7826 274.062C42.7244 273.862 43.473 273.607 44.0284 273.295C44.5839 272.983 44.9732 272.59 45.1964 272.115C45.4169 271.628 45.5279 271.113 45.5292 270.569C45.5181 270.027 45.4246 269.341 45.2488 268.511C44.9627 267.161 44.5803 266.18 44.1013 265.569C43.6224 264.958 42.8777 264.682 41.8673 264.741Z" fill="black"/>
<path d="M30.819 248.11L33.1941 247.81L33.9102 253.484L44.5419 252.142L44.9011 254.989L34.2695 256.331L34.9832 261.986L32.6081 262.286L30.819 248.11Z" fill="black"/>
<path d="M30.4639 243.519L43.539 242.563L43.7496 245.443L30.6746 246.4L30.4639 243.519Z" fill="black"/>
<path d="M43.2832 229.451C43.51 230.399 43.6318 231.575 43.6487 232.981C43.6657 234.387 43.5722 235.566 43.3683 236.519C43.1642 237.459 42.8066 238.267 42.2954 238.945C41.784 239.61 41.0932 240.1 40.2229 240.414C39.34 240.729 38.2399 240.894 36.9226 240.91C35.5674 240.926 34.4382 240.781 33.5352 240.475C32.6193 240.157 31.9102 239.659 31.408 238.981C30.893 238.29 30.5286 237.484 30.3149 236.562C30.1011 235.64 29.986 234.501 29.9697 233.146C29.9533 231.778 30.0409 230.637 30.2326 229.722C30.4241 228.795 30.769 227.981 31.2672 227.278C31.7528 226.575 32.4497 226.06 33.3578 225.733C34.2532 225.405 35.3786 225.233 36.7338 225.217C38.0511 225.201 39.1548 225.34 40.0451 225.633C40.9225 225.914 41.6249 226.387 42.1523 227.052C42.6795 227.704 43.0565 228.504 43.2832 229.451ZM41.2057 235.234C41.3001 234.663 41.3419 233.921 41.3309 233.009C41.3199 232.097 41.2604 231.363 41.1524 230.807C41.0315 230.239 40.8101 229.734 40.4882 229.295C40.1662 228.856 39.7064 228.544 39.1088 228.362C38.5112 228.179 37.7312 228.093 36.7686 228.105C35.7806 228.117 34.9838 228.221 34.3782 228.418C33.7725 228.616 33.3204 228.944 33.0219 229.404C32.7106 229.851 32.5077 230.354 32.413 230.912C32.3183 231.458 32.2764 232.193 32.2876 233.118C32.2964 233.853 32.3354 234.46 32.4045 234.941C32.4608 235.409 32.5803 235.863 32.7629 236.304C32.9454 236.733 33.2091 237.065 33.554 237.302C33.886 237.526 34.3252 237.704 34.8715 237.837C35.4177 237.957 36.0897 238.013 36.8877 238.003C37.8503 237.991 38.6281 237.887 39.2211 237.69C39.8141 237.493 40.2663 237.177 40.5778 236.742C40.8891 236.295 41.0984 235.792 41.2057 235.234Z" fill="black"/>
<path d="M30.2593 222.578L30.4153 220.57L40.1578 211.931L31.1409 211.231L31.3529 208.503L44.4235 209.519L44.2645 211.564L34.5818 220.169L43.5418 220.865L43.3299 223.593L30.2593 222.578Z" fill="black"/>
<circle cx="225.678" cy="225.677" r="215.236" stroke="#0D0D0D" stroke-width="1.5"/>
<circle cx="225.677" cy="225.677" r="222.216" stroke="#0D0D0D" stroke-width="6.92261" stroke-dasharray="94.84 2.77"/>
</svg>
