<svg width="758" height="758" viewBox="0 0 758 758" fill="none" xmlns="http://www.w3.org/2000/svg">
<path d="M637.205 407.143C635.217 406.984 633.786 406.384 632.913 405.343C632.039 404.316 631.68 402.824 631.837 400.865L632.334 394.659L628.496 394.351L628.762 391.04L643.893 392.252L643.134 401.725C642.968 403.801 642.425 405.258 641.504 406.097C640.597 406.951 639.164 407.3 637.205 407.143ZM640.594 400.926L641.04 395.356L634.922 394.866L634.472 400.48C634.389 401.518 634.569 402.305 635.012 402.84C635.469 403.377 636.282 403.693 637.452 403.786C638.592 403.877 639.377 403.72 639.807 403.313C640.237 402.906 640.499 402.11 640.594 400.926ZM628.015 421.863L625.402 421.488L627.329 408.052L642.355 410.207L640.431 423.622L637.818 423.247L639.27 413.12L635.699 412.608L634.271 422.56L631.702 422.192L633.129 412.24L629.47 411.715L628.015 421.863ZM621.847 438.509L622.737 434.313L631.011 428.916L630.08 433.306C629.855 434.368 629.898 435.187 630.211 435.763C630.521 436.353 631.199 436.759 632.246 436.981C633.251 437.194 633.972 437.115 634.411 436.743C634.85 436.372 635.195 435.59 635.448 434.399L636.548 429.213L624.367 426.63L625.056 423.38L639.905 426.529L637.989 435.568C637.553 437.62 636.853 439.015 635.886 439.755C634.931 440.512 633.578 440.705 631.828 440.334C628.528 439.634 627.256 437.535 628.013 434.037L621.847 438.509ZM626.394 455.327L623.852 454.617L626.536 444.997L620.539 443.323L621.432 440.124L636.054 444.204L632.429 457.194L629.865 456.478L632.597 446.688L629.079 445.707L626.394 455.327ZM612.98 466.909C613.115 465.79 613.456 464.463 614.002 462.93C614.549 461.396 615.125 460.153 615.729 459.201C616.328 458.262 617.042 457.528 617.869 456.998C618.692 456.481 619.639 456.227 620.71 456.235C621.795 456.249 623.056 456.511 624.493 457.024C625.971 457.551 627.139 458.162 627.997 458.857C628.864 459.571 629.433 460.397 629.706 461.335C629.988 462.292 630.059 463.314 629.921 464.401C629.782 465.488 629.449 466.771 628.922 468.249C628.39 469.741 627.837 470.945 627.261 471.861C626.68 472.791 625.978 473.537 625.155 474.1C624.345 474.667 623.381 474.947 622.264 474.937C621.16 474.933 619.868 474.667 618.39 474.14C616.953 473.628 615.811 473.034 614.962 472.357C614.122 471.7 613.549 470.904 613.244 469.97C612.934 469.049 612.846 468.029 612.98 466.909ZM617.561 461.466C617.229 462.048 616.885 462.836 616.531 463.831C616.176 464.826 615.945 465.647 615.839 466.294C615.742 466.96 615.78 467.596 615.953 468.203C616.126 468.809 616.5 469.332 617.075 469.771C617.651 470.21 618.463 470.616 619.513 470.991C620.591 471.375 621.498 471.581 622.235 471.611C622.972 471.64 623.595 471.465 624.104 471.086C624.622 470.725 625.044 470.261 625.371 469.693C625.694 469.138 626.035 468.356 626.394 467.348C626.68 466.547 626.882 465.871 627 465.322C627.127 464.791 627.18 464.249 627.159 463.697C627.133 463.158 626.98 462.691 626.701 462.295C626.43 461.919 626.025 461.548 625.485 461.185C624.941 460.835 624.233 460.505 623.363 460.194C622.313 459.82 621.426 459.621 620.703 459.596C619.98 459.572 619.362 459.733 618.849 460.08C618.331 460.44 617.902 460.902 617.561 461.466ZM604.292 487.518L606.026 483.595L615.233 480.015L613.419 484.12C612.98 485.113 612.854 485.923 613.042 486.551C613.223 487.193 613.804 487.73 614.783 488.163C615.722 488.578 616.444 488.648 616.95 488.375C617.456 488.101 617.955 487.408 618.447 486.294L620.591 481.445L609.202 476.411L610.545 473.373L624.429 479.51L620.693 487.961C619.845 489.879 618.872 491.101 617.774 491.626C616.684 492.17 615.32 492.08 613.684 491.357C610.598 489.993 609.786 487.678 611.246 484.41L604.292 487.518ZM602.97 499.444L611.276 496.816L602.014 491.837L603.586 488.911L616.957 496.098L615.759 498.326L606.224 501.243L609.082 510.748L607.895 512.957L594.524 505.769L596.108 502.824L605.312 507.772L602.97 499.444ZM594.188 506.443L602.77 521.177L601.214 523.602L584.279 521.885L586.287 518.756L589.156 519.133L593.801 511.893L592.275 509.424L594.188 506.443ZM599.115 520.478L595.183 514.139L591.75 519.49L599.115 520.478ZM595.913 531.635L594.511 533.498L579.621 535.864L587.987 542.163L586.082 544.694L573.954 535.563L575.383 533.665L590.194 531.294L581.881 525.035L583.786 522.504L595.913 531.635ZM567.535 550.946L565.272 553.527C563.883 551.997 563.305 550.465 563.537 548.932C563.78 547.409 564.835 545.584 566.701 543.456C568.771 541.096 570.69 539.775 572.459 539.493C574.218 539.221 576.217 540.067 578.456 542.03C579.636 543.065 580.501 544.058 581.052 545.009C581.604 545.981 581.839 546.948 581.757 547.91C581.685 548.881 581.394 549.835 580.884 550.773C580.374 551.711 579.616 552.753 578.61 553.9C576.792 555.973 575.15 557.234 573.683 557.684C572.226 558.143 570.666 557.798 569 556.65L571.249 554.086C572.212 554.678 573.088 554.802 573.877 554.459C574.655 554.128 575.571 553.361 576.625 552.159C577.148 551.564 577.555 551.043 577.848 550.598C578.143 550.173 578.372 549.711 578.537 549.212C578.692 548.724 578.712 548.244 578.598 547.774C578.486 547.324 578.24 546.825 577.861 546.279C577.473 545.743 576.931 545.17 576.237 544.561C575.398 543.826 574.642 543.309 573.968 543.011C573.294 542.712 572.659 542.623 572.064 542.746C571.46 542.879 570.905 543.133 570.399 543.509C569.905 543.895 569.334 544.458 568.686 545.196C567.632 546.398 566.988 547.433 566.754 548.301C566.52 549.168 566.78 550.05 567.535 550.946ZM552.385 562.76L550.523 560.889L560.147 551.316L570.852 562.078L561.244 571.635L559.383 569.764L566.635 562.549L564.091 559.991L556.963 567.082L555.132 565.241L562.26 558.151L559.654 555.53L552.385 562.76ZM540.309 575.506L548.991 576.237L542.32 568.107L544.888 566L554.517 577.735L552.562 579.34L542.633 578.408L541.66 588.286L539.722 589.877L530.092 578.142L532.677 576.021L539.306 584.099L540.309 575.506ZM529.522 578.639L531.86 595.529L529.499 597.181L514.488 589.157L517.534 587.025L520.044 588.464L527.093 583.533L526.619 580.669L529.522 578.639ZM528.745 593.493L527.517 586.136L522.308 589.781L528.745 593.493ZM500.509 597.551L504.185 595.338L513.775 597.705L509.93 600.019C509.001 600.579 508.432 601.17 508.224 601.791C508.004 602.421 508.17 603.194 508.722 604.111C509.251 604.991 509.802 605.464 510.373 605.531C510.944 605.598 511.751 605.318 512.794 604.69L517.336 601.955L510.913 591.287L513.759 589.574L521.589 602.579L513.673 607.345C511.876 608.426 510.378 608.866 509.178 608.664C507.972 608.483 506.908 607.625 505.986 606.092C504.246 603.202 504.912 600.841 507.986 599.007L500.509 597.551ZM485.254 605.393L489.093 603.429L497.436 606.65L499.16 605.769L496.125 599.834L499.083 598.321L505.994 611.836L503.036 613.349L499.5 606.435L496.102 616.895L492.498 618.738L495.805 609.115L485.254 605.393ZM472.913 613.622L471.862 611.2L484.313 605.794L490.358 619.718L477.928 625.116L476.876 622.694L486.26 618.62L484.823 615.31L475.601 619.315L474.567 616.933L483.789 612.929L482.317 609.539L472.913 613.622ZM460.697 631.396L459.76 628.787L465.992 626.549L461.798 614.871L464.924 613.748L469.118 625.426L475.33 623.195L476.267 625.804L460.697 631.396ZM455.657 632.97L451.181 618.465L454.376 617.479L458.852 631.984L455.657 632.97ZM452.669 633.813L450.41 634.392L437.305 626.937L439.902 637.082L436.833 637.867L433.069 623.162L435.371 622.572L448.416 629.974L445.835 619.893L448.904 619.108L452.669 633.813ZM424.036 630.681L424.463 633.085L415.409 634.694L414.982 632.29C414.607 630.181 415.066 628.528 416.357 627.33C417.649 626.133 419.689 625.286 422.476 624.791C423.992 624.521 425.292 624.417 426.375 624.478C427.458 624.538 428.427 624.791 429.28 625.235C430.136 625.694 430.827 626.398 431.354 627.347C431.88 628.296 432.276 629.522 432.543 631.023C432.818 632.569 432.866 633.886 432.687 634.975C432.496 636.082 432.068 636.984 431.403 637.684C430.726 638.4 429.902 638.963 428.933 639.374C427.948 639.787 426.72 640.125 425.247 640.386C422.561 640.864 420.476 640.825 418.992 640.269C417.496 639.73 416.47 638.527 415.915 636.66L419.251 636.067C419.611 637.09 420.212 637.706 421.054 637.914C421.881 638.125 423.124 638.082 424.785 637.787C425.579 637.646 426.23 637.493 426.737 637.329C427.232 637.181 427.7 636.964 428.141 636.677C428.567 636.393 428.875 636.032 429.066 635.596C429.259 635.175 429.379 634.632 429.424 633.969C429.459 633.322 429.393 632.537 429.229 631.612C429.034 630.515 428.774 629.638 428.449 628.98C428.109 628.326 427.661 627.861 427.106 627.588C426.551 627.314 425.959 627.166 425.329 627.144C424.688 627.139 423.876 627.223 422.894 627.398C421.19 627.701 419.918 628.172 419.079 628.813C418.225 629.456 417.908 630.399 418.129 631.641L418.144 631.728L424.036 630.681ZM391.49 643.979L398.018 628.216L400.825 627.987L409.865 642.481L406.093 642.788L399.682 631.833L395.152 643.68L391.49 643.979ZM386.431 644.158L385.917 628.987L389.259 628.874L389.773 644.045L386.431 644.158ZM383.543 629.011L383.335 644.19L375.636 644.084C374.184 644.064 372.975 643.945 372.01 643.726C371.045 643.522 370.185 643.144 369.43 642.591C368.66 642.038 368.106 641.253 367.768 640.236C367.415 639.219 367.249 637.926 367.271 636.357C367.291 634.89 367.476 633.668 367.827 632.69C368.178 631.712 368.724 630.942 369.465 630.38C370.206 629.818 371.084 629.427 372.099 629.206C373.115 628.985 374.363 628.885 375.844 628.906L383.543 629.011ZM376.182 631.506C375.2 631.493 374.4 631.541 373.782 631.649C373.165 631.758 372.604 631.978 372.101 632.308C371.598 632.639 371.231 633.133 371.002 633.79C370.773 634.461 370.651 635.332 370.637 636.403C370.626 637.18 370.668 637.848 370.763 638.407C370.843 638.965 370.998 639.429 371.228 639.799C371.458 640.169 371.703 640.466 371.964 640.689C372.225 640.913 372.589 641.079 373.057 641.188C373.51 641.312 373.949 641.391 374.374 641.427C374.799 641.462 375.356 641.484 376.045 641.493L380.049 641.548L380.186 631.561L376.182 631.506ZM351.693 630.224L351.906 627.592L365.436 628.688L364.21 643.819L350.702 642.725L350.916 640.093L361.112 640.919L361.403 637.323L351.382 636.511L351.592 633.924L361.613 634.735L361.911 631.052L351.693 630.224ZM337.248 625.468C338.373 625.387 339.741 625.468 341.35 625.713C342.96 625.957 344.29 626.285 345.34 626.696C346.375 627.106 347.232 627.666 347.91 628.377C348.574 629.086 349.004 629.968 349.2 631.021C349.394 632.089 349.377 633.377 349.148 634.885C348.912 636.436 348.535 637.699 348.016 638.674C347.481 639.661 346.778 640.377 345.91 640.824C345.024 641.283 344.034 641.548 342.941 641.619C341.847 641.691 340.524 641.609 338.973 641.373C337.407 641.135 336.119 640.821 335.11 640.431C334.087 640.038 333.221 639.491 332.511 638.79C331.799 638.103 331.342 637.211 331.138 636.111C330.931 635.027 330.946 633.709 331.182 632.157C331.411 630.649 331.776 629.414 332.278 628.452C332.764 627.502 333.436 626.788 334.294 626.31C335.139 625.83 336.123 625.549 337.248 625.468ZM343.466 628.926C342.831 628.711 341.991 628.525 340.947 628.366C339.903 628.208 339.053 628.138 338.398 628.157C337.725 628.189 337.108 628.347 336.545 628.632C335.983 628.918 335.541 629.385 335.22 630.033C334.899 630.682 334.655 631.557 334.488 632.659C334.316 633.79 334.286 634.72 334.398 635.449C334.51 636.178 334.8 636.757 335.269 637.184C335.722 637.623 336.258 637.95 336.879 638.162C337.485 638.373 338.317 638.559 339.375 638.719C340.216 638.847 340.918 638.917 341.48 638.928C342.025 638.951 342.567 638.9 343.106 638.774C343.629 638.646 344.059 638.407 344.394 638.057C344.712 637.72 344.998 637.251 345.252 636.652C345.492 636.051 345.681 635.293 345.82 634.38C345.987 633.278 346.014 632.369 345.9 631.655C345.786 630.94 345.51 630.364 345.072 629.927C344.619 629.487 344.084 629.154 343.466 628.926Z" fill="black"/>
<path d="M291.679 145.998C289.028 146.989 286.948 147.351 285.439 147.085C283.926 146.806 282.819 145.771 282.118 143.982L285.374 142.765C285.672 143.436 286.086 143.892 286.614 144.133C287.143 144.374 287.725 144.446 288.362 144.349C288.999 144.252 289.805 144.021 290.781 143.656C292.484 143.019 293.575 142.44 294.053 141.916C294.539 141.375 294.657 140.767 294.405 140.094C294.189 139.517 293.844 139.2 293.368 139.143C292.901 139.067 292.216 139.119 291.313 139.3L286.083 140.386C283.129 140.989 281.25 140.212 280.443 138.055C279.401 135.266 281.305 132.965 286.154 131.153C288.641 130.223 290.602 129.897 292.036 130.175C293.485 130.448 294.588 131.453 295.347 133.189L292.215 134.36C291.768 133.415 291.146 132.904 290.35 132.826C289.567 132.742 288.468 132.965 287.053 133.494C285.926 133.915 285.074 134.336 284.495 134.756C283.916 135.176 283.581 135.536 283.489 135.836C283.398 136.136 283.417 136.458 283.545 136.802C283.868 137.667 284.735 137.954 286.145 137.662L291.265 136.594C293.019 136.22 294.385 136.187 295.362 136.495C296.347 136.785 297.068 137.541 297.525 138.763C297.797 139.492 297.914 140.16 297.875 140.77C297.837 141.379 297.617 141.986 297.217 142.589C296.816 143.193 296.157 143.776 295.24 144.338C294.322 144.9 293.136 145.453 291.679 145.998ZM311.227 123.292L312.03 125.945L305.692 127.863L309.286 139.739L306.106 140.701L302.512 128.825L296.195 130.737L295.392 128.083L311.227 123.292ZM315.169 131.834L313.107 122.827L316.367 122.081L318.369 130.831C318.693 132.246 319.266 133.138 320.088 133.507C320.909 133.876 322.099 133.882 323.658 133.525C325.216 133.169 326.285 132.646 326.865 131.956C327.458 131.264 327.593 130.21 327.269 128.794L325.267 120.045L328.505 119.304L330.567 128.311C331.044 130.398 330.776 132.085 329.761 133.37C328.757 134.638 326.925 135.576 324.266 136.185C321.607 136.793 319.543 136.746 318.073 136.045C316.618 135.339 315.65 133.936 315.169 131.834ZM333.886 133.722L331.522 118.727L339.128 117.528C340.562 117.302 341.774 117.215 342.762 117.267C343.748 117.305 344.66 117.532 345.497 117.949C346.35 118.364 347.029 119.044 347.534 119.989C348.054 120.932 348.436 122.178 348.68 123.728C348.909 125.177 348.933 126.413 348.753 127.436C348.573 128.459 348.165 129.311 347.529 129.99C346.894 130.669 346.095 131.203 345.132 131.593C344.169 131.982 342.956 132.292 341.492 132.523L333.886 133.722ZM340.719 130.017C341.689 129.864 342.47 129.681 343.06 129.47C343.65 129.258 344.165 128.946 344.605 128.536C345.045 128.125 345.323 127.576 345.437 126.89C345.549 126.189 345.522 125.31 345.355 124.252C345.234 123.485 345.08 122.833 344.891 122.299C344.718 121.762 344.486 121.331 344.198 121.005C343.909 120.679 343.617 120.429 343.322 120.252C343.027 120.076 342.639 119.974 342.16 119.946C341.692 119.9 341.246 119.897 340.821 119.934C340.397 119.971 339.844 120.043 339.163 120.151L335.208 120.774L336.763 130.64L340.719 130.017ZM353.594 115.475L355.267 130.562L351.943 130.931L350.271 115.843L353.594 115.475ZM370.499 129.543C369.416 129.858 368.062 130.065 366.437 130.162C364.812 130.26 363.443 130.217 362.33 130.034C361.231 129.85 360.276 129.482 359.464 128.928C358.667 128.373 358.062 127.602 357.65 126.613C357.237 125.609 356.985 124.346 356.893 122.823C356.799 121.257 356.904 119.943 357.208 118.881C357.525 117.804 358.062 116.957 358.818 116.338C359.588 115.704 360.5 115.238 361.555 114.939C362.61 114.641 363.92 114.445 365.487 114.351C367.068 114.256 368.393 114.294 369.461 114.465C370.544 114.635 371.505 114.988 372.346 115.525C373.185 116.048 373.82 116.825 374.249 117.858C374.677 118.875 374.939 120.167 375.033 121.734C375.124 123.256 375.025 124.54 374.735 125.586C374.459 126.617 373.951 127.455 373.211 128.102C372.486 128.748 371.582 129.229 370.499 129.543ZM363.696 127.462C364.362 127.539 365.222 127.546 366.276 127.483C367.33 127.42 368.175 127.31 368.813 127.154C369.463 126.983 370.034 126.699 370.525 126.302C371.015 125.905 371.349 125.356 371.528 124.655C371.706 123.954 371.762 123.047 371.695 121.934C371.626 120.792 371.461 119.876 371.199 119.187C370.937 118.497 370.532 117.993 369.984 117.673C369.45 117.338 368.857 117.131 368.206 117.052C367.569 116.973 366.717 116.966 365.648 117.03C364.799 117.081 364.098 117.16 363.546 117.266C363.008 117.357 362.489 117.521 361.989 117.757C361.503 117.991 361.133 118.315 360.879 118.727C360.638 119.123 360.456 119.641 360.333 120.28C360.225 120.919 360.198 121.699 360.253 122.621C360.32 123.734 360.484 124.628 360.745 125.303C361.006 125.978 361.396 126.483 361.916 126.819C362.45 127.154 363.044 127.369 363.696 127.462ZM390.43 129.856C387.601 129.753 385.541 129.288 384.25 128.463C382.96 127.624 382.336 126.243 382.377 124.322L385.85 124.449C385.867 125.184 386.074 125.764 386.469 126.189C386.864 126.614 387.375 126.905 388 127.059C388.626 127.214 389.459 127.311 390.499 127.349C392.317 127.415 393.547 127.299 394.189 127C394.846 126.686 395.188 126.17 395.214 125.452C395.236 124.836 395.039 124.411 394.622 124.176C394.22 123.926 393.568 123.711 392.664 123.532L387.418 122.525C384.459 121.947 383.022 120.508 383.107 118.207C383.215 115.231 385.857 113.838 391.031 114.028C393.684 114.125 395.619 114.577 396.837 115.385C398.07 116.193 398.703 117.544 398.736 119.439L395.394 119.317C395.344 118.273 394.967 117.562 394.261 117.184C393.571 116.806 392.471 116.59 390.961 116.535C389.759 116.491 388.81 116.551 388.114 116.717C387.419 116.882 386.971 117.086 386.771 117.328C386.571 117.57 386.465 117.875 386.452 118.241C386.418 119.164 387.108 119.762 388.521 120.034L393.659 121.014C395.423 121.343 396.696 121.837 397.479 122.497C398.278 123.142 398.653 124.118 398.605 125.422C398.577 126.199 398.428 126.861 398.158 127.409C397.889 127.957 397.453 128.433 396.851 128.836C396.249 129.24 395.417 129.525 394.354 129.691C393.292 129.858 391.983 129.913 390.43 129.856ZM414.121 128.702L413.855 131.329L400.35 129.961L401.88 114.858L415.363 116.224L415.097 118.851L404.919 117.819L404.555 121.409L414.558 122.422L414.297 125.005L404.294 123.992L403.921 127.669L414.121 128.702ZM433.455 119.124L433.004 121.859L426.47 120.781L424.451 133.024L421.173 132.483L423.193 120.241L416.68 119.167L417.132 116.432L433.455 119.124ZM433.218 128.529L435.352 119.539L438.605 120.311L436.533 129.045C436.198 130.457 436.317 131.511 436.891 132.205C437.465 132.899 438.53 133.43 440.085 133.799C441.641 134.168 442.831 134.172 443.655 133.81C444.494 133.451 445.081 132.565 445.416 131.153L447.489 122.419L450.721 123.186L448.588 132.176C448.093 134.26 447.107 135.654 445.628 136.358C444.167 137.052 442.11 137.083 439.455 136.453C436.801 135.824 434.97 134.869 433.962 133.59C432.969 132.314 432.721 130.627 433.218 128.529ZM466.746 133.759C466.158 135.665 465.261 136.931 464.056 137.557C462.864 138.187 461.329 138.212 459.451 137.634L453.501 135.8L452.367 139.479L449.192 138.5L453.664 123.994L462.746 126.793C464.736 127.407 466.041 128.254 466.659 129.335C467.296 130.406 467.325 131.88 466.746 133.759ZM461.414 129.099L456.074 127.453L454.265 133.319L459.648 134.978C460.643 135.285 461.45 135.28 462.069 134.964C462.692 134.635 463.177 133.909 463.523 132.788C463.86 131.695 463.876 130.894 463.572 130.386C463.268 129.878 462.549 129.449 461.414 129.099Z" fill="black"/>
<circle cx="381.168" cy="379.173" r="286.25" stroke="#0D0D0D" stroke-width="1.5"/>
<path d="M319.1 627.053C270.464 615.361 226.298 589.73 192.016 553.302" stroke="#0D0D0D" stroke-width="12" stroke-dasharray="1.5 3"/>
<path d="M127.914 321.979C139.751 268.096 168.597 219.446 210.194 183.208" stroke="#0D0D0D" stroke-width="12" stroke-dasharray="1.5 3"/>
<path d="M182.138 543.132C158.436 514.992 141.036 482.101 131.11 446.674C121.184 411.246 118.962 374.103 124.594 337.744" stroke="#0D0D0D" stroke-width="12" stroke-dasharray="30.46 2.08"/>
<path d="M220.661 174.1C234.77 163.088 249.988 153.575 266.069 145.717" stroke="#0D0D0D" stroke-width="12" stroke-dasharray="30.46 2.08"/>
<path d="M631.251 324.105C634.808 341.004 636.658 358.217 636.771 375.486" stroke="#0D0D0D" stroke-width="12" stroke-dasharray="30.46 2.08"/>
<path d="M481.743 141.265C516.896 156.549 548.19 179.497 573.335 208.431C598.48 237.364 616.841 271.551 627.075 308.492" stroke="#0D0D0D" stroke-width="12" stroke-dasharray="1.5 3"/>
</svg>
